<?xml version="1.0" encoding="UTF-8"?> <svg xmlns="http://www.w3.org/2000/svg" xmlns:xlink="http://www.w3.org/1999/xlink" version="1.1" id="Layer_1" x="0px" y="0px" viewBox="0 0 93.4 93.5" style="enable-background:new 0 0 93.4 93.5;" xml:space="preserve"> <style type="text/css"> .st0{fill:#334EFF;} .st1{opacity:9.000000e-02;} .st2{fill:#334DFD;} .st3{fill:#324DFB;} .st4{fill:#324CF9;} .st5{fill:#324CF8;} .st6{fill:#314BF6;} .st7{fill:#314BF4;} .st8{fill:#304AF2;} .st9{fill:#304AF0;} .st10{fill:#3049EE;} .st11{fill:#2F48ED;} .st12{fill:#2F48EB;} .st13{fill:#2F47E9;} .st14{fill:#2E47E7;} .st15{fill:#2E46E5;} .st16{fill:#2D46E3;} .st17{fill:#2D45E2;} .st18{fill:#2D44E0;} .st19{fill:#2C44DE;} .st20{fill:#2C43DC;} .st21{fill:#2C43DA;} .st22{fill:#2B42D8;} .st23{fill:#2B42D7;} .st24{fill:#2B41D5;} .st25{fill:#2A41D3;} .st26{fill:#2A40D1;} .st27{fill:#293FCF;} .st28{fill:#293FCD;} .st29{fill:#293ECC;} .st30{fill:#283ECA;} .st31{fill:#283DC8;} .st32{fill:#283DC6;} .st33{fill:#273CC4;} .st34{fill:#273BC2;} .st35{fill:#273BC1;} .st36{fill:#263ABF;} .st37{fill:#263ABD;} .st38{fill:#2539BB;} .st39{fill:#2539B9;} .st40{fill:#2538B7;} .st41{fill:#2438B6;} .st42{fill:#2437B4;} .st43{fill:#2436B2;} .st44{fill:#2336B0;} .st45{fill:#2335AE;} .st46{fill:#2235AC;} .st47{fill:#2234AB;} .st48{fill:#2234A9;} .st49{fill:#2133A7;} .st50{fill:#2133A5;} .st51{fill:#2132A3;} .st52{fill:#2031A1;} .st53{fill:#2031A0;} .st54{fill:#20309E;} .st55{fill:#1F309C;} .st56{fill:#1F2F9A;} .st57{fill:#1E2F98;} .st58{fill:#1E2E96;} .st59{fill:#1E2D95;} .st60{fill:#1D2D93;} .st61{fill:#1D2C91;} .st62{fill:#1D2C8F;} .st63{fill:#1C2B8D;} .st64{fill:#1C2B8B;} .st65{fill:#1C2A8A;} .st66{fill:#1B2A88;} .st67{fill:#1B2986;} .st68{fill:#1A2884;} .st69{fill:#1A2882;} .st70{fill:#1A2780;} .st71{fill:#19277F;} .st72{fill:#19267D;} .st73{fill:#19267B;} .st74{fill:#182579;} .st75{fill:#182477;} .st76{fill:#172475;} .st77{fill:#172374;} .st78{fill:#172372;} .st79{fill:#162270;} .st80{fill:#16226E;} .st81{fill:#16216C;} .st82{fill:#15216A;} .st83{fill:#152069;} .st84{fill:#151F67;} .st85{fill:#141F65;} .st86{fill:#141E63;} .st87{fill:#131E61;} .st88{fill:#131D5F;} .st89{fill:#131D5E;} .st90{fill:#121C5C;} .st91{fill:#121B5A;} .st92{fill:#121B58;} .st93{fill:#111A56;} .st94{fill:#111A54;} .st95{fill:#111953;} .st96{fill:#101951;} .st97{fill:#10184F;} .st98{fill:#0F184D;} .st99{fill:#0F174B;} .st100{fill:#0F1649;} .st101{fill:#0E1648;} .st102{fill:#0E1546;} .st103{fill:#0E1544;} .st104{fill:#0D1442;} .st105{fill:#0D1440;} .st106{fill:#0C133E;} .st107{fill:#0C133D;} .st108{fill:#0C123B;} .st109{fill:#0B1139;} .st110{fill:#0B1137;} .st111{fill:#0B1035;} .st112{fill:#0A1033;} .st113{fill:#0A0F32;} .st114{fill:#0A0F30;} .st115{fill:#090E2E;} .st116{fill:#090D2C;} .st117{fill:#080D2A;} .st118{fill:#080C28;} .st119{fill:#080C27;} .st120{fill:#070B25;} .st121{fill:#070B23;} .st122{fill:#070A21;} .st123{fill:#060A1F;} .st124{fill:#06091D;} .st125{fill:#06081C;} .st126{fill:#05081A;} .st127{fill:#050718;} .st128{fill:#040716;} .st129{fill:#040614;} .st130{fill:#040612;} .st131{fill:#030511;} .st132{fill:#03040F;} .st133{fill:#03040D;} .st134{fill:#02030B;} .st135{fill:#020309;} .st136{fill:#010207;} .st137{fill:#010206;} .st138{fill:#010104;} .st139{fill:#000102;} .st140{fill:#B7B7B7;} .st141{fill:#FFFFFF;} .st142{fill:#D8D4D8;} </style> <desc>Created with Sketch.</desc> <g> <circle class="st0" cx="46.8" cy="46.8" r="45.6"></circle> <g class="st1"> <g> <path class="st0" d="M38,81.8l7.4-14.7l5.8,2.2l-13,12.6C38.1,81.9,38,81.8,38,81.8z"></path> <path class="st0" d="M45.4,67l18.4,7.2c0.6,0.2,1.3,0,1.6-0.6l21.3-41c0.5-1-0.5-2.2-1.6-1.8l-65.5,24c-1.1,0.4-1.1,2,0,2.4 L45.4,67z"></path> <path class="st0" d="M83.9,33L45.4,67l0,0l-7.2,14.7c0,0.1-0.2,0.1-0.2,0l-4.1-19v-0.1l49.8-29.8C83.9,32.8,84,32.9,83.9,33z"></path> </g> <g> <path class="st2" d="M37.9,81.7L45.3,67l5.8,2.2l-13,12.6C38,81.8,37.9,81.7,37.9,81.7z"></path> <path class="st2" d="M45.3,67l18.5,7.1c0.6,0.2,1.3,0,1.6-0.6l21.3-41c0.5-1-0.5-2.2-1.6-1.8l-65.5,24c-1.1,0.4-1.1,2,0,2.4 L45.3,67z"></path> <path class="st2" d="M83.8,33L45.3,67l0,0l-7.2,14.7c0,0.1-0.2,0.1-0.2,0l-4.1-19v-0.1l49.8-29.8C83.8,32.7,83.9,32.9,83.8,33z"></path> </g> <g> <path class="st3" d="M37.8,81.6l7.4-14.7l5.8,2.2L38,81.7C37.9,81.7,37.9,81.7,37.8,81.6z"></path> <path class="st3" d="M45.2,66.9L63.7,74c0.6,0.2,1.3,0,1.6-0.6l21.3-41c0.5-1-0.5-2.2-1.6-1.8l-65.5,24c-1.1,0.4-1.1,2,0,2.4 L45.2,66.9z"></path> <path class="st3" d="M83.7,32.9l-38.5,34l0,0L38,81.6c0,0.1-0.2,0.1-0.2,0l-4.1-19v-0.1l49.8-29.8C83.7,32.7,83.8,32.8,83.7,32.9 z"></path> </g> <g> <path class="st4" d="M37.8,81.6l7.4-14.7l5.8,2.2L38,81.7C37.9,81.7,37.8,81.6,37.8,81.6z"></path> <path class="st4" d="M45.2,66.8l18.5,7.1c0.6,0.2,1.3,0,1.6-0.6l21.3-41c0.5-1-0.5-2.2-1.6-1.8l-65.5,24c-1.1,0.4-1.1,2,0,2.4 L45.2,66.8z"></path> <path class="st4" d="M83.6,32.8l-38.5,34l0,0L38,81.6c0,0.1-0.2,0.1-0.2,0l-4.1-19v-0.1l49.8-29.8C83.6,32.6,83.7,32.7,83.6,32.8 z"></path> </g> <g> <path class="st5" d="M37.7,81.5l7.4-14.7l5.8,2.2l-13,12.6C37.8,81.6,37.7,81.5,37.7,81.5z"></path> <path class="st5" d="M45.1,66.8l18.5,7.1c0.6,0.2,1.3,0,1.6-0.6l21.3-41c0.5-1-0.5-2.2-1.6-1.8l-65.5,24c-1.1,0.4-1.1,2,0,2.4 L45.1,66.8z"></path> <path class="st5" d="M83.6,32.8l-38.5,34l0,0l-7.2,14.7c0,0.1-0.2,0.1-0.2,0l-4.1-19v-0.1l49.8-29.8 C83.6,32.5,83.7,32.7,83.6,32.8z"></path> </g> <g> <path class="st6" d="M37.6,81.4L45,66.7l5.8,2.2l-13,12.6C37.7,81.5,37.6,81.5,37.6,81.4z"></path> <path class="st6" d="M45,66.7l18.5,7.1c0.6,0.2,1.3,0,1.6-0.6l21.3-41c0.5-1-0.5-2.2-1.6-1.8l-65.5,24c-1.1,0.4-1.1,2,0,2.4 L45,66.7z"></path> <path class="st6" d="M83.5,32.7L45,66.7l0,0l-7.2,14.7c0,0.1-0.2,0.1-0.2,0l-4.1-19v-0.1l49.8-29.8 C83.5,32.5,83.6,32.6,83.5,32.7z"></path> </g> <g> <path class="st7" d="M37.5,81.3l7.4-14.7l5.8,2.2l-13,12.6C37.7,81.5,37.6,81.4,37.5,81.3z"></path> <path class="st7" d="M44.9,66.6l18.5,7.1c0.6,0.2,1.3,0,1.6-0.6l21.3-41c0.5-1-0.5-2.2-1.6-1.8l-65.5,24c-1.1,0.4-1.1,2,0,2.4 L44.9,66.6z"></path> <path class="st7" d="M83.4,32.6L45,66.6l0,0l-7.2,14.7c0,0.1-0.2,0.1-0.2,0l-4.1-19v-0.1l49.8-29.8 C83.4,32.4,83.5,32.5,83.4,32.6z"></path> </g> <g> <path class="st8" d="M37.5,81.3l7.4-14.7l5.8,2.2l-13,12.6C37.6,81.4,37.5,81.3,37.5,81.3z"></path> <path class="st8" d="M44.9,66.6l18.5,7.1c0.6,0.2,1.3,0,1.6-0.6l21.3-41c0.5-1-0.5-2.2-1.6-1.8l-65.5,24c-1.1,0.4-1.1,2,0,2.4 L44.9,66.6z"></path> <path class="st8" d="M83.4,32.6l-38.5,34l0,0l-7.2,14.7c0,0.1-0.2,0.1-0.2,0l-4.1-19v-0.1l49.8-29.8 C83.3,32.3,83.4,32.5,83.4,32.6z"></path> </g> <g> <path class="st9" d="M37.4,81.2l7.4-14.7l5.8,2.2l-13,12.6C37.5,81.3,37.4,81.3,37.4,81.2z"></path> <path class="st9" d="M44.8,66.5l18.5,7.1c0.6,0.2,1.3,0,1.6-0.6l21.3-41c0.5-1-0.5-2.2-1.6-1.8L19,54.2c-1.1,0.4-1.1,2,0,2.4 L44.8,66.5z"></path> <path class="st9" d="M83.3,32.5l-38.5,34l0,0l-7.2,14.7c0,0.1-0.2,0.1-0.2,0l-4.1-19v-0.1l49.8-29.8 C83.3,32.2,83.4,32.4,83.3,32.5z"></path> </g> <g> <path class="st10" d="M37.3,81.1l7.4-14.7l5.8,2.2l-13,12.6C37.4,81.3,37.3,81.2,37.3,81.1z"></path> <path class="st10" d="M44.7,66.4l18.5,7.1c0.6,0.2,1.3,0,1.6-0.6l21.3-41c0.5-1-0.5-2.2-1.6-1.8L19,54.1c-1.1,0.4-1.1,2,0,2.4 L44.7,66.4z"></path> <path class="st10" d="M83.2,32.4l-38.5,34l0,0l-7.2,14.8c0,0.1-0.2,0.1-0.2,0l-4.1-19v-0.1l49.9-29.9 C83.2,32.2,83.3,32.3,83.2,32.4z"></path> </g> <g> <path class="st11" d="M37.2,81.1l7.4-14.7l5.8,2.2l-13,12.6C37.4,81.2,37.3,81.1,37.2,81.1z"></path> <path class="st11" d="M44.6,66.4l18.5,7.1c0.6,0.2,1.3,0,1.6-0.6l21.3-41c0.5-1-0.5-2.2-1.6-1.8l-65.5,24c-1.1,0.4-1.1,2,0,2.4 L44.6,66.4z"></path> <path class="st11" d="M83.1,32.3l-38.5,34l0,0L37.4,81c0,0.1-0.2,0.1-0.2,0l-4.1-19v-0.1L83,32.2C83.1,32.1,83.2,32.3,83.1,32.3z "></path> </g> <g> <path class="st12" d="M37.2,81l7.4-14.7l5.8,2.2l-13,12.6C37.3,81.1,37.2,81.1,37.2,81z"></path> <path class="st12" d="M44.6,66.3L63,73.4c0.6,0.2,1.3,0,1.6-0.6l21.3-41c0.5-1-0.5-2.2-1.6-1.8L18.8,54c-1.1,0.4-1.1,2,0,2.4 L44.6,66.3z"></path> <path class="st12" d="M83.1,32.3l-38.5,34l0,0L37.4,81c0,0.1-0.2,0.1-0.2,0l-4.1-19v-0.1l49.8-29.8C83,32,83.2,32.2,83.1,32.3z"></path> </g> <g> <path class="st13" d="M37.1,80.9l7.4-14.7l5.8,2.2L37.3,81C37.2,81,37.1,81,37.1,80.9z"></path> <path class="st13" d="M44.5,66.2L63,73.4c0.6,0.2,1.3,0,1.6-0.6l21.3-41c0.5-1-0.5-2.2-1.6-1.8L18.8,54c-1.1,0.4-1.1,2,0,2.4 L44.5,66.2z"></path> <path class="st13" d="M83,32.2l-38.5,34l0,0l-7.2,14.7c0,0.1-0.2,0.1-0.2,0l-4.1-19v-0.1L82.8,32C83,32,83.1,32.1,83,32.2z"></path> </g> <g> <path class="st14" d="M37,80.9l7.4-14.7l5.8,2.2L37.2,81C37.1,81,37.1,80.9,37,80.9z"></path> <path class="st14" d="M44.4,66.2l18.5,7.1c0.6,0.2,1.3,0,1.6-0.6l21.3-41c0.5-1-0.5-2.2-1.6-1.8l-65.5,24c-1.1,0.4-1.1,2,0,2.4 L44.4,66.2z"></path> <path class="st14" d="M82.9,32.1l-38.5,34l0,0l-7.2,14.7c0,0.1-0.2,0.1-0.2,0l-4.1-19v-0.1l49.8-29.8 C82.9,31.9,83,32.1,82.9,32.1z"></path> </g> <g> <path class="st15" d="M37,80.8l7.4-14.7l5.8,2.2l-13,12.6C37.1,80.9,37,80.9,37,80.8z"></path> <path class="st15" d="M44.4,66.1l18.4,7.1c0.6,0.2,1.3,0,1.6-0.6l21.3-41c0.5-1-0.5-2.2-1.6-1.8l-65.5,24c-1.1,0.4-1.1,2,0,2.4 L44.4,66.1z"></path> <path class="st15" d="M82.8,32.1l-38.5,34l0,0l-7.2,14.7c0,0.1-0.2,0.1-0.2,0l-4.1-19v-0.1l49.8-29.8 C82.8,31.8,82.9,32,82.8,32.1z"></path> </g> <g> <path class="st16" d="M36.9,80.7L44.3,66l5.7,2.2L37,80.8C37,80.8,36.9,80.8,36.9,80.7z"></path> <path class="st16" d="M44.3,66l18.5,7.1c0.6,0.2,1.3,0,1.6-0.6l21.3-41c0.5-1-0.5-2.2-1.6-1.8l-65.5,24c-1.1,0.4-1.1,2,0,2.4 L44.3,66z"></path> <path class="st16" d="M82.8,32L44.3,66l0,0l-7.2,14.7c0,0.1-0.2,0.1-0.2,0l-4.1-19v-0.1l49.8-29.8C82.7,31.8,82.9,31.9,82.8,32z"></path> </g> <g> <path class="st17" d="M36.8,80.7L44.2,66l5.8,2.2L37,80.7C36.9,80.8,36.8,80.7,36.8,80.7z"></path> <path class="st17" d="M44.2,66l18.5,7.1c0.6,0.2,1.3,0,1.6-0.6l21.3-41c0.5-1-0.5-2.2-1.6-1.8l-65.5,24c-1.1,0.4-1.1,2,0,2.4 L44.2,66z"></path> <path class="st17" d="M82.7,31.9l-38.5,34l0,0L37,80.7c0,0.1-0.2,0.1-0.2,0l-4.1-19v-0.1l49.8-29.8 C82.7,31.7,82.8,31.9,82.7,31.9z"></path> </g> <g> <path class="st18" d="M36.7,80.6l7.4-14.7l5.8,2.2l-13,12.6C36.8,80.7,36.8,80.7,36.7,80.6z"></path> <path class="st18" d="M44.1,65.9L62.6,73c0.6,0.2,1.3,0,1.6-0.6l21.3-41c0.5-1-0.5-2.2-1.6-1.8l-65.5,24c-1.1,0.4-1.1,2,0,2.4 L44.1,65.9z"></path> <path class="st18" d="M82.6,31.9l-38.5,34l0,0l-7.2,14.7c0,0.1-0.2,0.1-0.2,0l-4.1-19v-0.1l49.8-29.8 C82.6,31.6,82.7,31.8,82.6,31.9z"></path> </g> <g> <path class="st19" d="M36.7,80.5l7.4-14.7l5.8,2.2l-13,12.6C36.8,80.6,36.7,80.6,36.7,80.5z"></path> <path class="st19" d="M44.1,65.8l18.5,7.1c0.6,0.2,1.3,0,1.6-0.6l21.3-41c0.5-1-0.5-2.2-1.6-1.8l-65.5,24c-1.1,0.4-1.1,2,0,2.4 L44.1,65.8z"></path> <path class="st19" d="M82.5,31.8L44,65.8l0,0l-7.2,14.7c0,0.1-0.2,0.1-0.2,0l-4.1-19v-0.1l49.8-29.8 C82.5,31.6,82.6,31.7,82.5,31.8z"></path> </g> <g> <path class="st20" d="M36.6,80.5L44,65.8l5.8,2.2l-13,12.6C36.7,80.6,36.6,80.5,36.6,80.5z"></path> <path class="st20" d="M44,65.8l18.5,7.1c0.6,0.2,1.3,0,1.6-0.6l21.3-41c0.5-1-0.5-2.2-1.6-1.8l-65.5,24c-1.1,0.4-1.1,2,0,2.4 L44,65.8z"></path> <path class="st20" d="M82.5,31.7L44,65.7l0,0l-7.2,14.7c0,0.1-0.2,0.1-0.2,0l-4.1-19v-0.1l49.8-29.8 C82.5,31.5,82.6,31.7,82.5,31.7z"></path> </g> <g> <path class="st21" d="M36.5,80.4l7.4-14.7l5.8,2.2l-13,12.6C36.6,80.5,36.5,80.5,36.5,80.4z"></path> <path class="st21" d="M43.9,65.7l18.5,7.1c0.6,0.2,1.3,0,1.6-0.6l21.3-41c0.5-1-0.5-2.2-1.6-1.8l-65.5,24c-1.1,0.4-1.1,2,0,2.4 L43.9,65.7z"></path> <path class="st21" d="M82.4,31.7l-38.5,34l0,0l-7.2,14.7c0,0.1-0.2,0.1-0.2,0l-4.1-19v-0.1l49.8-29.8 C82.4,31.4,82.5,31.6,82.4,31.7z"></path> </g> <g> <path class="st22" d="M36.4,80.3l7.4-14.7l5.8,2.2l-13,12.6C36.5,80.4,36.5,80.4,36.4,80.3z"></path> <path class="st22" d="M43.8,65.6l18.5,7.1c0.6,0.2,1.3,0,1.6-0.6l21.3-41c0.5-1-0.5-2.2-1.6-1.8l-65.5,24c-1.1,0.4-1.1,2,0,2.4 L43.8,65.6z"></path> <path class="st22" d="M82.3,31.6l-38.5,34l0,0l-7.2,14.7c0,0.1-0.2,0.1-0.2,0l-4.1-19v-0.1l49.8-29.8 C82.3,31.4,82.4,31.5,82.3,31.6z"></path> </g> <g> <path class="st23" d="M36.4,80.3l7.4-14.7l5.8,2.2l-13,12.6C36.5,80.4,36.4,80.3,36.4,80.3z"></path> <path class="st23" d="M43.8,65.6l18.5,7.1c0.6,0.2,1.3,0,1.6-0.6l21.3-41c0.5-1-0.5-2.2-1.6-1.8L18,53.2c-1.1,0.4-1.1,2,0,2.4 L43.8,65.6z"></path> <path class="st23" d="M82.2,31.5l-38.5,34l0,0l-7.2,14.7c0,0.1-0.2,0.1-0.2,0l-4.1-19v-0.1L82,31.3 C82.2,31.3,82.3,31.4,82.2,31.5z"></path> </g> <g> <path class="st24" d="M36.3,80.2l7.4-14.7l5.8,2.2l-13,12.6C36.4,80.3,36.3,80.2,36.3,80.2z"></path> <path class="st24" d="M43.7,65.5l18.5,7.1c0.6,0.2,1.3,0,1.6-0.6l21.3-41c0.5-1-0.5-2.2-1.6-1.8l-65.6,24c-1.1,0.4-1.1,2,0,2.4 L43.7,65.5z"></path> <path class="st24" d="M82.2,31.5l-38.5,34l0,0l-7.2,14.7c0,0.1-0.2,0.1-0.2,0l-4.1-19v-0.1L82,31.3 C82.2,31.2,82.3,31.4,82.2,31.5z"></path> </g> <g> <path class="st25" d="M36.2,80.1l7.4-14.7l5.8,2.2l-13,12.6C36.3,80.2,36.2,80.2,36.2,80.1z"></path> <path class="st25" d="M43.6,65.4l18.5,7.1c0.6,0.2,1.3,0,1.6-0.6l21.3-41c0.5-1-0.5-2.2-1.6-1.8l-65.5,24c-1.1,0.4-1.1,2,0,2.4 L43.6,65.4z"></path> <path class="st25" d="M82.1,31.4l-38.5,34l0,0l-7.2,14.7c0,0.1-0.2,0.1-0.2,0l-4.1-19V61L82,31.2C82.1,31.2,82.2,31.3,82.1,31.4z "></path> </g> <g> <path class="st26" d="M36.1,80.1l7.4-14.7l5.8,2.2l-13,12.6C36.3,80.2,36.2,80.1,36.1,80.1z"></path> <path class="st26" d="M43.5,65.3L62,72.5c0.6,0.2,1.3,0,1.6-0.6l21.3-41c0.5-1-0.5-2.2-1.6-1.8l-65.5,24c-1.1,0.4-1.1,2,0,2.4 L43.5,65.3z"></path> <path class="st26" d="M82,31.3l-38.5,34l0,0L36.3,80c0,0.1-0.2,0.1-0.2,0L32,61v-0.1l49.9-29.7C82,31.1,82.1,31.2,82,31.3z"></path> </g> <g> <path class="st27" d="M36.1,80l7.4-14.7l5.8,2.2l-13,12.6C36.2,80.1,36.1,80,36.1,80z"></path> <path class="st27" d="M43.5,65.3L62,72.4c0.6,0.2,1.3,0,1.6-0.6l21.3-41c0.5-1-0.5-2.2-1.6-1.8L17.8,53c-1.1,0.4-1.1,2,0,2.4 L43.5,65.3z"></path> <path class="st27" d="M82,31.3l-38.5,34l0,0L36.3,80c0,0.1-0.2,0.1-0.2,0L32,61v-0.1l49.8-29.8C81.9,31,82,31.2,82,31.3z"></path> </g> <g> <path class="st28" d="M36,79.9l7.4-14.7l5.8,2.2L36.2,80C36.1,80,36,80,36,79.9z"></path> <path class="st28" d="M43.4,65.2l18.5,7.1c0.6,0.2,1.3,0,1.6-0.6l21.3-41c0.5-1-0.5-2.2-1.6-1.8l-65.5,24c-1.1,0.4-1.1,2,0,2.4 L43.4,65.2z"></path> <path class="st28" d="M81.9,31.2l-38.5,34l0,0l-7.2,14.7c0,0.1-0.2,0.1-0.2,0l-4.1-19v-0.1L81.7,31C81.9,31,82,31.1,81.9,31.2z"></path> </g> <g> <path class="st29" d="M35.9,79.8l7.4-14.7l5.8,2.2l-13,12.6C36,80,35.9,79.9,35.9,79.8z"></path> <path class="st29" d="M43.3,65.1l18.5,7.1c0.6,0.2,1.3,0,1.6-0.6l21.3-41c0.5-1-0.5-2.2-1.6-1.8l-65.5,24c-1.1,0.4-1.1,2,0,2.4 L43.3,65.1z"></path> <path class="st29" d="M81.8,31.1l-38.5,34l0,0l-7.2,14.7c0,0.1-0.2,0.1-0.2,0l-4.1-19v-0.1l49.8-29.8 C81.8,30.9,81.9,31,81.8,31.1z"></path> </g> <g> <path class="st30" d="M35.8,79.8l7.4-14.7l5.8,2.1L36,79.9C36,79.9,35.9,79.8,35.8,79.8z"></path> <path class="st30" d="M43.2,65.1l18.5,7.1c0.6,0.2,1.3,0,1.6-0.6l21.3-41c0.5-1-0.5-2.2-1.6-1.8l-65.5,24c-1.1,0.4-1.1,2,0,2.4 L43.2,65.1z"></path> <path class="st30" d="M81.7,31.1l-38.5,34l0,0L36,79.8c0,0.1-0.2,0.1-0.2,0l-4.1-19v-0.1l49.8-29.8C81.7,30.8,81.8,31,81.7,31.1z "></path> </g> <g> <path class="st31" d="M35.8,79.7L43.2,65l5.8,2.2L36,79.8C35.9,79.8,35.8,79.8,35.8,79.7z"></path> <path class="st31" d="M43.2,65l18.5,7.1c0.6,0.2,1.3,0,1.6-0.6l21.3-41c0.5-1-0.5-2.2-1.6-1.8l-65.5,24c-1.1,0.4-1.1,2,0,2.4 L43.2,65z"></path> <path class="st31" d="M81.7,31L43.2,65l0,0L36,79.7c0,0.1-0.2,0.1-0.2,0l-4.1-19v-0.1l49.8-29.8C81.6,30.8,81.8,30.9,81.7,31z"></path> </g> <g> <path class="st32" d="M35.7,79.6l7.4-14.7l5.8,2.2l-13,12.6C35.8,79.8,35.7,79.7,35.7,79.6z"></path> <path class="st32" d="M43.1,64.9L61.6,72c0.6,0.2,1.3,0,1.6-0.6l21.3-41c0.5-1-0.5-2.2-1.6-1.8l-65.5,24c-1.1,0.4-1.1,2,0,2.4 L43.1,64.9z"></path> <path class="st32" d="M81.6,30.9l-38.5,34l0,0l-7.2,14.7c0,0.1-0.2,0.1-0.2,0l-4.1-19v-0.1l49.8-29.8 C81.6,30.7,81.7,30.8,81.6,30.9z"></path> </g> <g> <path class="st33" d="M35.6,79.6L43,64.9l5.8,2.2l-13,12.6C35.7,79.7,35.7,79.6,35.6,79.6z"></path> <path class="st33" d="M43,64.9L61.5,72c0.6,0.2,1.3,0,1.6-0.6l21.3-41c0.5-1-0.5-2.2-1.6-1.8l-65.5,24c-1.1,0.4-1.1,2,0,2.4 L43,64.9z"></path> <path class="st33" d="M81.5,30.9L43,64.9l0,0l-7.2,14.7c0,0.1-0.2,0.1-0.2,0l-4.1-19v-0.1l49.8-29.8 C81.5,30.6,81.6,30.8,81.5,30.9z"></path> </g> <g> <path class="st34" d="M35.5,79.5L43,64.8l5.8,2.2l-13,12.6C35.7,79.6,35.6,79.6,35.5,79.5z"></path> <path class="st34" d="M43,64.8l18.5,7.1c0.6,0.2,1.3,0,1.6-0.6l21.3-41c0.5-1-0.5-2.2-1.6-1.8l-65.5,24c-1.1,0.4-1.1,2,0,2.4 L43,64.8z"></path> <path class="st34" d="M81.4,30.8L43,64.8l0,0l-7.2,14.7c0,0.1-0.2,0.1-0.2,0l-4.1-19v-0.1l49.8-29.8 C81.4,30.5,81.5,30.7,81.4,30.8z"></path> </g> <g> <path class="st35" d="M35.5,79.4l7.4-14.7l5.8,2.2l-13,12.6C35.6,79.6,35.5,79.5,35.5,79.4z"></path> <path class="st35" d="M42.9,64.7l18.5,7.1c0.6,0.2,1.3,0,1.6-0.6l21.3-41c0.5-1-0.5-2.2-1.6-1.8l-65.5,24c-1.1,0.4-1.1,2,0,2.4 L42.9,64.7z"></path> <path class="st35" d="M81.4,30.7l-38.5,34l0,0l-7.2,14.7c0,0.1-0.2,0.1-0.2,0l-4.1-19v-0.1l49.8-29.8 C81.3,30.5,81.5,30.6,81.4,30.7z"></path> </g> <g> <path class="st36" d="M35.4,79.4l7.4-14.7l5.8,2.2l-13,12.6C35.5,79.5,35.4,79.4,35.4,79.4z"></path> <path class="st36" d="M42.8,64.7l18.5,7.1c0.6,0.2,1.3,0,1.6-0.6l21.3-41c0.5-1-0.5-2.2-1.6-1.8L17,52.4c-1.1,0.4-1.1,2,0,2.4 L42.8,64.7z"></path> <path class="st36" d="M81.3,30.6l-38.5,34l0,0l-7.2,14.7c0,0.1-0.2,0.1-0.2,0l-4.1-19v-0.1l49.8-29.8 C81.3,30.4,81.4,30.6,81.3,30.6z"></path> </g> <g> <path class="st37" d="M35.3,79.3l7.4-14.7l5.8,2.2l-13,12.6C35.4,79.4,35.4,79.4,35.3,79.3z"></path> <path class="st37" d="M42.7,64.6l18.5,7.1c0.6,0.2,1.3,0,1.6-0.6l21.3-41c0.5-1-0.5-2.2-1.6-1.8L17,52.3c-1.1,0.4-1.1,2,0,2.4 L42.7,64.6z"></path> <path class="st37" d="M81.2,30.6l-38.5,34l0,0l-7.2,14.7c0,0.1-0.2,0.1-0.2,0l-4.1-19v-0.1L81,30.4 C81.2,30.3,81.3,30.5,81.2,30.6z"></path> </g> <g> <path class="st38" d="M35.3,79.2l7.4-14.7l5.8,2.2l-13,12.6C35.4,79.3,35.3,79.3,35.3,79.2z"></path> <path class="st38" d="M42.7,64.5l18.5,7.1c0.6,0.2,1.3,0,1.6-0.6l21.3-41c0.5-1-0.5-2.2-1.6-1.8l-65.6,24c-1.1,0.4-1.1,2,0,2.4 L42.7,64.5z"></path> <path class="st38" d="M81.1,30.5l-38.5,34l0,0l-7.2,14.7c0,0.1-0.2,0.1-0.2,0l-4.1-19v-0.1L81,30.3 C81.1,30.3,81.2,30.4,81.1,30.5z"></path> </g> <g> <path class="st39" d="M35.2,79.2l7.4-14.7l5.8,2.2L35.3,79.2C35.3,79.3,35.2,79.2,35.2,79.2z"></path> <path class="st39" d="M42.6,64.5L61,71.6c0.6,0.2,1.3,0,1.6-0.6l21.3-41c0.5-1-0.5-2.2-1.6-1.8l-65.5,24c-1.1,0.4-1.1,2,0,2.4 L42.6,64.5z"></path> <path class="st39" d="M81.1,30.4l-38.5,34l0,0l-7.2,14.8c0,0.1-0.2,0.1-0.2,0l-4.1-19v-0.1l49.8-29.8 C81.1,30.2,81.2,30.4,81.1,30.4z"></path> </g> <g> <path class="st40" d="M35.1,79.1l7.4-14.7l5.8,2.2l-13,12.6C35.2,79.2,35.1,79.2,35.1,79.1z"></path> <path class="st40" d="M42.5,64.4L61,71.5c0.6,0.2,1.3,0,1.6-0.6l21.3-41c0.5-1-0.5-2.2-1.6-1.8l-65.5,24c-1.1,0.4-1.1,2,0,2.4 L42.5,64.4z"></path> <path class="st40" d="M81,30.4l-38.5,34l0,0l-7.2,14.7c0,0.1-0.2,0.1-0.2,0l-4.1-19V60l49.9-29.8C81,30.1,81.1,30.3,81,30.4z"></path> </g> <g> <path class="st41" d="M35,79l7.4-14.7l5.8,2.2l-13,12.6C35.1,79.1,35.1,79.1,35,79z"></path> <path class="st41" d="M42.4,64.3l18.5,7.1c0.6,0.2,1.3,0,1.6-0.6l21.3-41c0.5-1-0.5-2.2-1.6-1.8L16.7,52c-1.1,0.4-1.1,2,0,2.4 L42.4,64.3z"></path> <path class="st41" d="M80.9,30.3l-38.5,34l0,0L35.2,79c0,0.1-0.2,0.1-0.2,0l-4.1-19v-0.1l49.8-29.8C80.9,30.1,81,30.2,80.9,30.3z "></path> </g> <g> <path class="st42" d="M35,79l7.4-14.7l5.8,2.2l-13,12.6C35.1,79.1,35,79,35,79z"></path> <path class="st42" d="M42.4,64.3l18.5,7.1c0.6,0.2,1.3,0,1.6-0.6l21.3-41c0.5-1-0.5-2.2-1.6-1.8L16.7,52c-1.1,0.4-1.1,2,0,2.4 L42.4,64.3z"></path> <path class="st42" d="M80.8,30.2l-38.4,34l0,0l-7.2,14.7c0,0.1-0.2,0.1-0.2,0l-4.1-19v-0.1L80.7,30C80.8,30,80.9,30.2,80.8,30.2z "></path> </g> <g> <path class="st43" d="M34.9,78.9l7.4-14.7l5.8,2.2L35,79C35,79,34.9,79,34.9,78.9z"></path> <path class="st43" d="M42.3,64.2l18.5,7.1c0.6,0.2,1.3,0,1.6-0.6l21.3-41c0.5-1-0.5-2.2-1.6-1.8l-65.5,24c-1.1,0.4-1.1,2,0,2.4 L42.3,64.2z"></path> <path class="st43" d="M80.8,30.2l-38.5,34l0,0l-7.2,14.7c0,0.1-0.2,0.1-0.2,0l-4.1-19v-0.1L80.6,30 C80.8,29.9,80.9,30.1,80.8,30.2z"></path> </g> <g> <path class="st44" d="M34.8,78.8l7.4-14.7l5.8,2.2L35,78.9C34.9,78.9,34.8,78.9,34.8,78.8z"></path> <path class="st44" d="M42.2,64.1l18.5,7.1c0.6,0.2,1.3,0,1.6-0.6l21.3-41c0.5-1-0.5-2.2-1.6-1.8l-65.5,24c-1.1,0.4-1.1,2,0,2.4 L42.2,64.1z"></path> <path class="st44" d="M80.7,30.1l-38.5,34l0,0L35,78.9c0,0.1-0.2,0.1-0.2,0l-4.1-19v-0.1L80.5,30C80.7,29.9,80.8,30,80.7,30.1z"></path> </g> <g> <path class="st45" d="M34.7,78.8l7.4-14.7l5.8,2.2l-13,12.6C34.8,78.9,34.8,78.8,34.7,78.8z"></path> <path class="st45" d="M42.1,64.1l18.5,7.1c0.6,0.2,1.3,0,1.6-0.6l21.3-41c0.5-1-0.5-2.2-1.6-1.8l-65.5,24c-1.1,0.4-1.1,2,0,2.4 L42.1,64.1z"></path> <path class="st45" d="M80.6,30L42.1,64l0,0l-7.2,14.7c0,0.1-0.2,0.1-0.2,0l-4.1-19v-0.1l49.8-29.8C80.6,29.8,80.7,30,80.6,30z"></path> </g> <g> <path class="st46" d="M34.7,78.7L42.1,64l5.8,2.2l-13,12.6C34.8,78.8,34.7,78.7,34.7,78.7z"></path> <path class="st46" d="M42.1,64l18.5,7.1c0.6,0.2,1.3,0,1.6-0.6l21.3-41c0.5-1-0.5-2.2-1.6-1.8l-65.5,24c-1.1,0.4-1.1,2,0,2.4 L42.1,64z"></path> <path class="st46" d="M80.6,30L42.1,64l0,0l-7.2,14.7c0,0.1-0.2,0.1-0.2,0l-4.1-19v-0.1l49.8-29.8C80.5,29.7,80.6,29.9,80.6,30z"></path> </g> <g> <path class="st47" d="M34.6,78.6L42,63.9l5.8,2.2l-13,12.6C34.7,78.7,34.6,78.7,34.6,78.6z"></path> <path class="st47" d="M42,63.9L60.5,71c0.6,0.2,1.3,0,1.6-0.6l21.3-41c0.5-1-0.5-2.2-1.6-1.8l-65.5,24c-1.1,0.4-1.1,2,0,2.4 L42,63.9z"></path> <path class="st47" d="M80.5,29.9L42,63.9l0,0l-7.2,14.7c0,0.1-0.2,0.1-0.2,0l-4.1-19v-0.1l49.8-29.8 C80.5,29.7,80.6,29.8,80.5,29.9z"></path> </g> <g> <path class="st48" d="M34.5,78.6l7.4-14.7l5.8,2.2l-13,12.6C34.6,78.7,34.5,78.6,34.5,78.6z"></path> <path class="st48" d="M41.9,63.9L60.4,71c0.6,0.2,1.3,0,1.6-0.6l21.3-41c0.5-1-0.5-2.2-1.6-1.8l-65.5,24c-1.1,0.4-1.1,2,0,2.4 L41.9,63.9z"></path> <path class="st48" d="M80.4,29.8l-38.5,34l0,0l-7.2,14.7c0,0.1-0.2,0.1-0.2,0l-4.1-19v-0.1l49.8-29.8 C80.4,29.6,80.5,29.7,80.4,29.8z"></path> </g> <g> <path class="st49" d="M34.4,78.5l7.4-14.7l5.8,2.2l-13,12.6C34.6,78.6,34.5,78.5,34.4,78.5z"></path> <path class="st49" d="M41.8,63.8l18.5,7.1c0.6,0.2,1.3,0,1.6-0.6l21.3-41c0.5-1-0.5-2.2-1.6-1.8l-65.5,24c-1.1,0.4-1.1,2,0,2.4 L41.8,63.8z"></path> <path class="st49" d="M80.3,29.8l-38.5,34l0,0l-7.2,14.7c0,0.1-0.2,0.1-0.2,0l-4.1-19v-0.1l49.8-29.8 C80.3,29.5,80.4,29.7,80.3,29.8z"></path> </g> <g> <path class="st50" d="M34.4,78.4l7.4-14.7l5.8,2.2l-13,12.6C34.5,78.5,34.4,78.5,34.4,78.4z"></path> <path class="st50" d="M41.8,63.7l18.5,7.1c0.6,0.2,1.3,0,1.6-0.6l21.3-41c0.5-1-0.5-2.2-1.6-1.8L16,51.4c-1.1,0.4-1.1,2,0,2.4 L41.8,63.7z"></path> <path class="st50" d="M80.3,29.7l-38.5,34l0,0l-7.2,14.7c0,0.1-0.2,0.1-0.2,0l-4.1-19v-0.1l49.8-29.8 C80.2,29.5,80.4,29.6,80.3,29.7z"></path> </g> <g> <path class="st51" d="M34.3,78.4l7.4-14.7l5.8,2.2l-13,12.6C34.4,78.5,34.3,78.4,34.3,78.4z"></path> <path class="st51" d="M41.7,63.6l18.5,7.1c0.6,0.2,1.3,0,1.6-0.6L83,29.2c0.5-1-0.5-2.2-1.6-1.8l-65.5,24c-1.1,0.4-1.1,2,0,2.4 L41.7,63.6z"></path> <path class="st51" d="M80.2,29.6l-38.5,34l0,0l-7.2,14.7c0,0.1-0.2,0.1-0.2,0l-4.1-19v-0.1L80,29.4 C80.2,29.4,80.3,29.5,80.2,29.6z"></path> </g> <g> <path class="st52" d="M34.2,78.3l7.4-14.7l5.8,2.2l-13,12.6C34.3,78.4,34.2,78.3,34.2,78.3z"></path> <path class="st52" d="M41.6,63.6l18.5,7.1c0.6,0.2,1.3,0,1.6-0.6l21.3-41c0.5-1-0.5-2.2-1.6-1.8l-65.5,24c-1.1,0.4-1.1,2,0,2.4 L41.6,63.6z"></path> <path class="st52" d="M80.1,29.6l-38.5,34l0,0l-7.2,14.7c0,0.1-0.2,0.1-0.2,0l-4.1-19v-0.1L80,29.4 C80.1,29.3,80.2,29.5,80.1,29.6z"></path> </g> <g> <path class="st53" d="M34.1,78.2l7.4-14.7l5.8,2.2l-13,12.6C34.3,78.3,34.2,78.3,34.1,78.2z"></path> <path class="st53" d="M41.5,63.5L60,70.6c0.6,0.2,1.3,0,1.6-0.6l21.3-41c0.5-1-0.5-2.2-1.6-1.8l-65.5,24c-1.1,0.4-1.1,2,0,2.4 L41.5,63.5z"></path> <path class="st53" d="M80,29.5l-38.5,34l0,0l-7.2,14.7c0,0.1-0.2,0.1-0.2,0l-4.1-19v-0.1l49.8-29.8C80,29.3,80.1,29.4,80,29.5z"></path> </g> <g> <path class="st54" d="M34.1,78.1l7.4-14.7l5.8,2.2L34.2,78.2C34.2,78.3,34.1,78.2,34.1,78.1z"></path> <path class="st54" d="M41.5,63.4L60,70.5c0.6,0.2,1.3,0,1.6-0.6l21.3-41c0.5-1-0.5-2.2-1.6-1.8l-65.5,24c-1.1,0.4-1.1,2,0,2.4 L41.5,63.4z"></path> <path class="st54" d="M80,29.4l-38.5,34l0,0l-7.2,14.8c0,0.1-0.2,0.1-0.2,0l-4.1-19v-0.1l49.8-29.8C79.9,29.2,80.1,29.3,80,29.4z "></path> </g> <g> <path class="st55" d="M34,78.1l7.4-14.7l5.8,2.2l-13,12.6C34.1,78.2,34,78.1,34,78.1z"></path> <path class="st55" d="M41.4,63.4l18.5,7.1c0.6,0.2,1.3,0,1.6-0.6l21.3-41c0.5-1-0.5-2.2-1.6-1.8l-65.5,24c-1.1,0.4-1.1,2,0,2.4 L41.4,63.4z"></path> <path class="st55" d="M79.9,29.4l-38.5,34l0,0l-7.2,14.7c0,0.1-0.2,0.1-0.2,0l-4.1-19V59l49.9-29.8C79.9,29.1,80,29.3,79.9,29.4z "></path> </g> <g> <path class="st56" d="M33.9,78l7.4-14.7l5.8,2.2l-13,12.6C34,78.1,34,78.1,33.9,78z"></path> <path class="st56" d="M41.3,63.3l18.5,7.1c0.6,0.2,1.3,0,1.6-0.6l21.3-41c0.5-1-0.5-2.2-1.6-1.8L15.6,51c-1.1,0.4-1.1,2,0,2.4 L41.3,63.3z"></path> <path class="st56" d="M79.8,29.3l-38.5,34l0,0L34.1,78c0,0.1-0.2,0.1-0.2,0l-4.1-19v-0.1l49.8-29.8 C79.8,29.1,79.9,29.2,79.8,29.3z"></path> </g> <g> <path class="st57" d="M33.9,77.9l7.4-14.7l5.8,2.2L34,78C34,78.1,33.9,78,33.9,77.9z"></path> <path class="st57" d="M41.3,63.2l18.5,7.1c0.6,0.2,1.3,0,1.6-0.6l21.3-41c0.5-1-0.5-2.2-1.6-1.8l-65.5,24c-1.1,0.4-1.1,2,0,2.4 L41.3,63.2z"></path> <path class="st57" d="M79.7,29.2l-38.4,34l0,0L34,78c0,0.1-0.2,0.1-0.2,0l-4.1-19v-0.1l49.8-29.8C79.7,29,79.8,29.1,79.7,29.2z"></path> </g> <g> <path class="st58" d="M33.8,77.9l7.4-14.7l5.8,2.2L34,78C33.9,78,33.8,77.9,33.8,77.9z"></path> <path class="st58" d="M41.2,63.2l18.5,7.1c0.6,0.2,1.3,0,1.6-0.6l21.3-41c0.5-1-0.5-2.2-1.6-1.8l-65.5,24c-1.1,0.4-1.1,2,0,2.4 L41.2,63.2z"></path> <path class="st58" d="M79.7,29.2l-38.5,34l0,0L34,77.9c0,0.1-0.2,0.1-0.2,0l-4.1-19v-0.1L79.5,29C79.7,28.9,79.8,29.1,79.7,29.2z "></path> </g> <g> <path class="st59" d="M33.7,77.8l7.4-14.7l5.8,2.2l-13,12.6C33.8,77.9,33.7,77.9,33.7,77.8z"></path> <path class="st59" d="M41.1,63.1l18.5,7.1c0.6,0.2,1.3,0,1.6-0.6l21.3-41c0.5-1-0.5-2.2-1.6-1.8l-65.5,24c-1.1,0.4-1.1,2,0,2.4 L41.1,63.1z"></path> <path class="st59" d="M79.6,29.1l-38.5,34l0,0l-7.2,14.7c0,0.1-0.2,0.1-0.2,0l-4.1-19v-0.1l49.8-29.8 C79.6,28.8,79.7,29,79.6,29.1z"></path> </g> <g> <path class="st60" d="M33.6,77.7L41,63l5.8,2.2l-13,12.6C33.7,77.9,33.7,77.8,33.6,77.7z"></path> <path class="st60" d="M41,63l18.5,7.2c0.6,0.2,1.3,0,1.6-0.6l21.3-41c0.5-1-0.5-2.2-1.6-1.8l-65.5,24c-1.1,0.4-1.1,2,0,2.4L41,63 z"></path> <path class="st60" d="M79.5,29L41,63l0,0l-7.2,14.7c0,0.1-0.2,0.1-0.2,0l-4.1-19v-0.1l49.8-29.8C79.5,28.8,79.6,28.9,79.5,29z"></path> </g> <g> <path class="st61" d="M33.6,77.7L41,63l5.8,2.2l-13,12.6C33.7,77.8,33.6,77.7,33.6,77.7z"></path> <path class="st61" d="M41,63l18.5,7.1c0.6,0.2,1.3,0,1.6-0.6l21.3-41c0.5-1-0.5-2.2-1.6-1.8l-65.5,24c-1.1,0.4-1.1,2,0,2.4L41,63 z"></path> <path class="st61" d="M79.4,28.9L41,63l0,0l-7.2,14.7c0,0.1-0.2,0.1-0.2,0l-4.1-19v-0.1l49.8-29.8C79.4,28.7,79.5,28.9,79.4,28.9 z"></path> </g> <g> <path class="st62" d="M33.5,77.6l7.4-14.7l5.8,2.2l-13,12.6C33.6,77.7,33.5,77.7,33.5,77.6z"></path> <path class="st62" d="M40.9,62.9L59.4,70c0.6,0.2,1.3,0,1.6-0.6l21.3-41c0.5-1-0.5-2.2-1.6-1.8l-65.5,24c-1.1,0.4-1.1,2,0,2.4 L40.9,62.9z"></path> <path class="st62" d="M79.4,28.9l-38.5,34l0,0l-7.2,14.7c0,0.1-0.2,0.1-0.2,0l-4.1-19v-0.1l49.8-29.8 C79.4,28.6,79.5,28.8,79.4,28.9z"></path> </g> <g> <path class="st63" d="M33.4,77.5l7.4-14.7l5.8,2.2l-13,12.6C33.5,77.6,33.4,77.6,33.4,77.5z"></path> <path class="st63" d="M40.8,62.8l18.5,7.1c0.6,0.2,1.3,0,1.6-0.6l21.3-41c0.5-1-0.5-2.2-1.6-1.8L15,50.5c-1.1,0.4-1.1,2,0,2.4 L40.8,62.8z"></path> <path class="st63" d="M79.3,28.8l-38.5,34l0,0l-7.2,14.7c0,0.1-0.2,0.1-0.2,0l-4.1-19v-0.1l49.8-29.8 C79.3,28.6,79.4,28.7,79.3,28.8z"></path> </g> <g> <path class="st64" d="M33.3,77.5l7.4-14.7l5.8,2.2l-13,12.6C33.4,77.6,33.4,77.5,33.3,77.5z"></path> <path class="st64" d="M40.7,62.8l18.5,7.1c0.6,0.2,1.3,0,1.6-0.6l21.3-41c0.5-1-0.5-2.2-1.6-1.8L15,50.5c-1.1,0.4-1.1,2,0,2.4 L40.7,62.8z"></path> <path class="st64" d="M79.2,28.7l-38.5,34l0,0l-7.2,14.7c0,0.1-0.2,0.1-0.2,0l-4.1-19v-0.1L79,28.5 C79.2,28.5,79.3,28.7,79.2,28.7z"></path> </g> <g> <path class="st65" d="M33.3,77.4l7.4-14.7l5.8,2.2l-13,12.6C33.4,77.5,33.3,77.5,33.3,77.4z"></path> <path class="st65" d="M40.7,62.7l18.5,7.1c0.6,0.2,1.3,0,1.6-0.6l21.2-41c0.5-1-0.5-2.2-1.6-1.8l-65.5,24c-1.1,0.4-1.1,2,0,2.4 L40.7,62.7z"></path> <path class="st65" d="M79.1,28.7l-38.5,34l0,0l-7.2,14.7c0,0.1-0.2,0.1-0.2,0l-4.1-19v-0.1L79,28.5 C79.1,28.4,79.2,28.6,79.1,28.7z"></path> </g> <g> <path class="st66" d="M33.2,77.3l7.4-14.7l5.8,2.2l-13,12.6C33.3,77.4,33.2,77.4,33.2,77.3z"></path> <path class="st66" d="M40.6,62.6L59,69.7c0.6,0.2,1.3,0,1.6-0.6l21.3-41c0.5-1-0.5-2.2-1.6-1.8l-65.5,24c-1.1,0.4-1.1,2,0,2.4 L40.6,62.6z"></path> <path class="st66" d="M79.1,28.6l-38.5,34l0,0l-7.2,14.7c0,0.1-0.2,0.1-0.2,0l-4.1-19v-0.1L79,28.4 C79.1,28.4,79.2,28.5,79.1,28.6z"></path> </g> <g> <path class="st67" d="M33.1,77.3l7.4-14.7l5.8,2.2l-13,12.6C33.2,77.4,33.1,77.3,33.1,77.3z"></path> <path class="st67" d="M40.5,62.6L59,69.7c0.6,0.2,1.3,0,1.6-0.6l21.3-41c0.5-1-0.5-2.2-1.6-1.8l-65.5,24c-1.1,0.4-1.1,2,0,2.4 L40.5,62.6z"></path> <path class="st67" d="M79,28.5l-38.5,34l0,0l-7.2,14.7c0,0.1-0.2,0.1-0.2,0l-4.1-19v-0.1l49.8-29.8C79,28.3,79.1,28.5,79,28.5z"></path> </g> <g> <path class="st68" d="M33,77.2l7.4-14.7l5.8,2.2l-13,12.6C33.2,77.3,33.1,77.3,33,77.2z"></path> <path class="st68" d="M40.4,62.5l18.5,7.1c0.6,0.2,1.3,0,1.6-0.6l21.3-41c0.5-1-0.5-2.2-1.6-1.8l-65.5,24c-1.1,0.4-1.1,2,0,2.4 L40.4,62.5z"></path> <path class="st68" d="M78.9,28.5l-38.5,34l0,0l-7.2,14.7c0,0.1-0.2,0.1-0.2,0l-4.1-19v-0.1l49.8-29.8 C78.9,28.2,79,28.4,78.9,28.5z"></path> </g> <g> <path class="st69" d="M33,77.1l7.4-14.7l5.8,2.2L33.1,77.2C33.1,77.2,33,77.2,33,77.1z"></path> <path class="st69" d="M40.4,62.4l18.5,7.1c0.6,0.2,1.3,0,1.6-0.6l21.3-41c0.5-1-0.5-2.2-1.6-1.8l-65.5,24c-1.1,0.4-1.1,2,0,2.4 L40.4,62.4z"></path> <path class="st69" d="M78.9,28.4l-38.5,34l0,0l-7.2,14.8c0,0.1-0.2,0.1-0.2,0l-4.1-19v-0.1l49.8-29.9 C78.8,28.2,78.9,28.3,78.9,28.4z"></path> </g> <g> <path class="st70" d="M32.9,77.1l7.4-14.7l5.8,2.2L32.9,77.1C33,77.2,32.9,77.1,32.9,77.1z"></path> <path class="st70" d="M40.3,62.4l18.5,7.1c0.6,0.2,1.3,0,1.6-0.6l21.3-41c0.5-1-0.5-2.2-1.6-1.8l-65.5,24c-1.1,0.4-1.1,2,0,2.4 L40.3,62.4z"></path> <path class="st70" d="M78.8,28.3l-38.5,34l0,0L33.1,77c0,0.1-0.2,0.1-0.2,0l-4.1-19v-0.1l49.9-29.7 C78.8,28.1,78.9,28.3,78.8,28.3z"></path> </g> <g> <path class="st71" d="M32.8,77l7.4-14.7l5.8,2.2L33,77.1C32.9,77.1,32.8,77,32.8,77z"></path> <path class="st71" d="M40.2,62.3l18.5,7.1c0.6,0.2,1.3,0,1.6-0.6l21.3-41c0.5-1-0.5-2.2-1.6-1.8L14.5,50c-1.1,0.4-1.1,2,0,2.4 L40.2,62.3z"></path> <path class="st71" d="M78.7,28.3l-38.5,34l0,0L33,77c0,0.1-0.2,0.1-0.2,0l-4.1-19v-0.1l49.8-29.8C78.7,28,78.8,28.2,78.7,28.3z"></path> </g> <g> <path class="st72" d="M32.7,76.9l7.4-14.7l5.8,2.2L32.9,77C32.9,77,32.8,77,32.7,76.9z"></path> <path class="st72" d="M40.1,62.2l18.5,7.1c0.6,0.2,1.3,0,1.6-0.6l21.3-41c0.5-1-0.5-2.2-1.6-1.8l-65.5,24c-1.1,0.4-1.1,2,0,2.4 L40.1,62.2z"></path> <path class="st72" d="M78.6,28.2l-38.4,34l0,0L33,76.9c0,0.1-0.2,0.1-0.2,0l-4.1-19v-0.1L78.5,28C78.6,28,78.7,28.1,78.6,28.2z"></path> </g> <g> <path class="st73" d="M32.7,76.9l7.4-14.7l5.8,2.2L32.9,77C32.8,77,32.7,76.9,32.7,76.9z"></path> <path class="st73" d="M40.1,62.1l18.5,7.1c0.6,0.2,1.3,0,1.6-0.6l21.3-41c0.5-1-0.5-2.2-1.6-1.8l-65.5,24c-1.1,0.4-1.1,2,0,2.4 L40.1,62.1z"></path> <path class="st73" d="M78.6,28.1l-38.5,34l0,0l-7.2,14.7c0,0.1-0.2,0.1-0.2,0l-4.1-19v-0.1l49.8-29.8 C78.5,27.9,78.7,28,78.6,28.1z"></path> </g> <g> <path class="st74" d="M32.6,76.8L40,62.1l5.8,2.2l-13,12.6C32.7,76.9,32.6,76.8,32.6,76.8z"></path> <path class="st74" d="M40,62.1l18.5,7.1c0.6,0.2,1.3,0,1.6-0.6l21.3-41c0.5-1-0.5-2.2-1.6-1.8l-65.5,24c-1.1,0.4-1.1,2,0,2.4 L40,62.1z"></path> <path class="st74" d="M78.5,28.1L40,62.1l0,0l-7.2,14.7c0,0.1-0.2,0.1-0.2,0l-4.1-19v-0.1l49.8-29.8C78.5,27.8,78.6,28,78.5,28.1 z"></path> </g> <g> <path class="st75" d="M32.5,76.7L39.9,62l5.8,2.2l-13,12.6C32.6,76.8,32.6,76.8,32.5,76.7z"></path> <path class="st75" d="M39.9,62l18.5,7.1c0.6,0.2,1.3,0,1.6-0.6l21.3-41c0.5-1-0.5-2.2-1.6-1.8l-65.5,24c-1.1,0.4-1.1,2,0,2.4 L39.9,62z"></path> <path class="st75" d="M78.4,28L39.9,62l0,0l-7.2,14.7c0,0.1-0.2,0.1-0.2,0l-4.1-19v-0.1l49.8-29.8C78.4,27.8,78.5,27.9,78.4,28z"></path> </g> <g> <path class="st76" d="M32.5,76.7L39.9,62l5.8,2.2l-13,12.6C32.6,76.8,32.5,76.7,32.5,76.7z"></path> <path class="st76" d="M39.9,61.9L58.4,69c0.6,0.2,1.3,0,1.6-0.6l21.3-41c0.5-1-0.5-2.2-1.6-1.8l-65.5,24c-1.1,0.4-1.1,2,0,2.4 L39.9,61.9z"></path> <path class="st76" d="M78.3,27.9l-38.5,34l0,0l-7.2,14.7c0,0.1-0.2,0.1-0.2,0l-4.1-19v-0.1l49.8-29.8 C78.3,27.7,78.4,27.8,78.3,27.9z"></path> </g> <g> <path class="st77" d="M32.4,76.6l7.4-14.7l5.8,2.2l-13,12.6C32.5,76.7,32.4,76.6,32.4,76.6z"></path> <path class="st77" d="M39.8,61.9L58.3,69c0.6,0.2,1.3,0,1.6-0.6l21.3-41c0.5-1-0.5-2.2-1.6-1.8L14,49.6c-1.1,0.4-1.1,2,0,2.4 L39.8,61.9z"></path> <path class="st77" d="M78.3,27.9l-38.5,34l0,0l-7.2,14.7c0,0.1-0.2,0.1-0.2,0l-4.1-19v-0.1l49.8-29.8 C78.2,27.6,78.4,27.8,78.3,27.9z"></path> </g> <g> <path class="st78" d="M32.3,76.5l7.4-14.7l5.8,2.2l-13,12.6C32.4,76.6,32.3,76.6,32.3,76.5z"></path> <path class="st78" d="M39.7,61.8l18.5,7.1c0.6,0.2,1.3,0,1.6-0.6l21.3-41c0.5-1-0.5-2.2-1.6-1.8L14,49.5c-1.1,0.4-1.1,2,0,2.4 L39.7,61.8z"></path> <path class="st78" d="M78.2,27.8l-38.5,34l0,0l-7.2,14.7c0,0.1-0.2,0.1-0.2,0l-4.1-19v-0.1L78,27.6 C78.2,27.6,78.3,27.7,78.2,27.8z"></path> </g> <g> <path class="st79" d="M32.2,76.4l7.4-14.7l5.8,2.2l-13,12.6C32.3,76.6,32.3,76.5,32.2,76.4z"></path> <path class="st79" d="M39.6,61.7l18.5,7.1c0.6,0.2,1.3,0,1.6-0.6l21.3-41c0.5-1-0.5-2.2-1.6-1.8l-65.5,24c-1.1,0.4-1.1,2,0,2.4 L39.6,61.7z"></path> <path class="st79" d="M78.1,27.7l-38.5,34l0,0l-7.2,14.7c0,0.1-0.2,0.1-0.2,0l-4.1-19v-0.1L78,27.6 C78.1,27.5,78.2,27.6,78.1,27.7z"></path> </g> <g> <path class="st80" d="M32.2,76.4l7.4-14.7l5.8,2.2l-13,12.6C32.3,76.5,32.2,76.4,32.2,76.4z"></path> <path class="st80" d="M39.6,61.7L58,68.8c0.6,0.2,1.3,0,1.6-0.6l21.3-41c0.5-1-0.5-2.2-1.6-1.8l-65.5,24c-1.1,0.4-1.1,2,0,2.4 L39.6,61.7z"></path> <path class="st80" d="M78,27.7l-38.5,34l0,0l-7.2,14.7c0,0.1-0.2,0.1-0.2,0l-4.1-19v-0.1l49.8-29.8C78,27.4,78.1,27.6,78,27.7z"></path> </g> <g> <path class="st81" d="M32.1,76.3l7.4-14.7l5.8,2.2l-13,12.6C32.2,76.4,32.1,76.4,32.1,76.3z"></path> <path class="st81" d="M39.5,61.6L58,68.7c0.6,0.2,1.3,0,1.6-0.6l21.3-41c0.5-1-0.5-2.2-1.6-1.8l-65.5,24c-1.1,0.4-1.1,2,0,2.4 L39.5,61.6z"></path> <path class="st81" d="M78,27.6l-38.5,34l0,0l-7.2,14.7c0,0.1-0.2,0.1-0.2,0l-4.1-19v-0.1l49.8-29.8C78,27.4,78.1,27.5,78,27.6z"></path> </g> <g> <path class="st82" d="M32,76.2l7.4-14.7l5.8,2.2l-13,12.6C32.1,76.4,32,76.3,32,76.2z"></path> <path class="st82" d="M39.4,61.5l18.5,7.1c0.6,0.2,1.3,0,1.6-0.6l21.3-41c0.5-1-0.5-2.2-1.6-1.8l-65.6,24c-1.1,0.4-1.1,2,0,2.4 L39.4,61.5z"></path> <path class="st82" d="M77.9,27.5l-38.5,34l0,0l-7.2,14.7c0,0.1-0.2,0.1-0.2,0l-4.1-19v-0.1l49.8-29.8 C77.9,27.3,78,27.4,77.9,27.5z"></path> </g> <g> <path class="st83" d="M31.9,76.2l7.4-14.7l5.8,2.2l-13,12.5C32,76.3,32,76.2,31.9,76.2z"></path> <path class="st83" d="M39.3,61.5l18.5,7.1c0.6,0.2,1.3,0,1.6-0.6l21.3-41c0.5-1-0.5-2.2-1.6-1.8l-65.5,24c-1.1,0.4-1.1,2,0,2.4 L39.3,61.5z"></path> <path class="st83" d="M77.8,27.5l-38.5,34l0,0l-7.2,14.7c0,0.1-0.2,0.1-0.2,0l-4.1-19v-0.1l49.8-29.8 C77.8,27.2,77.9,27.4,77.8,27.5z"></path> </g> <g> <path class="st84" d="M31.9,76.1l7.4-14.7l5.8,2.2L32,76.2C32,76.2,31.9,76.2,31.9,76.1z"></path> <path class="st84" d="M39.3,61.4l18.5,7.1c0.6,0.2,1.3,0,1.6-0.6l21.3-41c0.5-1-0.5-2.2-1.6-1.8l-65.5,24c-1.1,0.4-1.1,2,0,2.4 L39.3,61.4z"></path> <path class="st84" d="M77.7,27.4l-38.5,34l0,0L32,76.1c0,0.1-0.2,0.1-0.2,0l-4.1-19V57l49.9-29.8C77.7,27.1,77.8,27.3,77.7,27.4z "></path> </g> <g> <path class="st85" d="M31.8,76l7.4-14.7l5.8,2.2L32,76.1C31.9,76.2,31.8,76.1,31.8,76z"></path> <path class="st85" d="M39.2,61.3l18.5,7.1c0.6,0.2,1.3,0,1.6-0.6l21.3-41c0.5-1-0.5-2.2-1.6-1.8L13.5,49c-1.1,0.4-1.1,2,0,2.4 L39.2,61.3z"></path> <path class="st85" d="M77.7,27.3l-38.5,34l0,0L32,76.1c0,0.1-0.2,0.1-0.2,0l-4.1-19V57l49.8-29.8C77.7,27.1,77.8,27.2,77.7,27.3z "></path> </g> <g> <path class="st86" d="M31.7,76l7.4-14.7l5.8,2.2l-13,12.6C31.8,76.1,31.7,76,31.7,76z"></path> <path class="st86" d="M39.1,61.3l18.5,7.1c0.6,0.2,1.3,0,1.6-0.6l21.3-41c0.5-1-0.5-2.2-1.6-1.8L13.4,49c-1.1,0.4-1.1,2,0,2.4 L39.1,61.3z"></path> <path class="st86" d="M77.6,27.2l-38.5,34l0,0l-7.2,14.7c0,0.1-0.2,0.1-0.2,0l-4.1-19v-0.1L77.4,27C77.6,27,77.7,27.2,77.6,27.2z "></path> </g> <g> <path class="st87" d="M31.6,75.9L39,61.2l5.8,2.2L31.8,76C31.8,76,31.7,76,31.6,75.9z"></path> <path class="st87" d="M39,61.2l18.5,7.1c0.6,0.2,1.3,0,1.6-0.6l21.3-41c0.5-1-0.5-2.2-1.6-1.8l-65.5,24c-1.1,0.4-1.1,2,0,2.4 L39,61.2z"></path> <path class="st87" d="M77.5,27.2l-38.4,34l0,0l-7.2,14.7c0,0.1-0.2,0.1-0.2,0l-4.1-19v-0.1L77.4,27 C77.5,26.9,77.6,27.1,77.5,27.2z"></path> </g> <g> <path class="st88" d="M31.6,75.8L39,61.1l5.8,2.2l-13,12.6C31.7,75.9,31.6,75.9,31.6,75.8z"></path> <path class="st88" d="M39,61.1l18.5,7.1c0.6,0.2,1.3,0,1.6-0.6l21.3-41c0.5-1-0.5-2.2-1.6-1.8l-65.5,24c-1.1,0.4-1.1,2,0,2.4 L39,61.1z"></path> <path class="st88" d="M77.5,27.1L39,61.1l0,0l-7.2,14.7c0,0.1-0.2,0.1-0.2,0l-4.1-19v-0.1l49.8-29.8C77.4,26.9,77.5,27,77.5,27.1 z"></path> </g> <g> <path class="st89" d="M31.5,75.8l7.4-14.7l5.8,2.2l-13,12.6C31.6,75.9,31.5,75.8,31.5,75.8z"></path> <path class="st89" d="M38.9,61.1l18.4,7.1c0.6,0.2,1.3,0,1.6-0.6l21.3-41c0.5-1-0.5-2.2-1.6-1.8l-65.5,24c-1.1,0.4-1.1,2,0,2.4 L38.9,61.1z"></path> <path class="st89" d="M77.4,27L38.9,61l0,0l-7.2,14.7c0,0.1-0.2,0.1-0.2,0l-4.1-19v-0.1l49.8-29.8C77.4,26.8,77.5,27,77.4,27z"></path> </g> <g> <path class="st90" d="M31.4,75.7L38.8,61l5.8,2.2l-13,12.6C31.5,75.8,31.4,75.8,31.4,75.7z"></path> <path class="st90" d="M38.8,61l18.5,7.1c0.6,0.2,1.3,0,1.6-0.6l21.3-41c0.5-1-0.5-2.2-1.6-1.8L13,48.7c-1.1,0.4-1.1,2,0,2.4 L38.8,61z"></path> <path class="st90" d="M77.3,27L38.8,61l0,0l-7.2,14.7c0,0.1-0.2,0.1-0.2,0l-4.1-19v-0.1l49.8-29.8C77.3,26.7,77.4,26.9,77.3,27z"></path> </g> <g> <path class="st91" d="M31.3,75.6l7.4-14.7l5.8,2.2l-13,12.6C31.5,75.7,31.4,75.7,31.3,75.6z"></path> <path class="st91" d="M38.7,60.9L57.2,68c0.6,0.2,1.3,0,1.6-0.6l21.3-41c0.5-1-0.5-2.2-1.6-1.8L13,48.6c-1.1,0.4-1.1,2,0,2.4 L38.7,60.9z"></path> <path class="st91" d="M77.2,26.9l-38.5,34l0,0l-7.2,14.7c0,0.1-0.2,0.1-0.2,0l-4.1-19v-0.1L77,26.7 C77.2,26.7,77.3,26.8,77.2,26.9z"></path> </g> <g> <path class="st92" d="M31.3,75.6l7.4-14.7l5.8,2.2l-13,12.6C31.4,75.7,31.3,75.6,31.3,75.6z"></path> <path class="st92" d="M38.7,60.9L57.2,68c0.6,0.2,1.3,0,1.6-0.6l21.3-41c0.5-1-0.5-2.2-1.6-1.8L13,48.6c-1.1,0.4-1.1,2,0,2.4 L38.7,60.9z"></path> <path class="st92" d="M77.2,26.8l-38.5,34l0,0l-7.2,14.7c0,0.1-0.2,0.1-0.2,0l-4.1-19v-0.1L77,26.7 C77.1,26.6,77.3,26.8,77.2,26.8z"></path> </g> <g> <path class="st93" d="M31.2,75.5l7.4-14.7l5.8,2.2l-13,12.6C31.3,75.6,31.2,75.6,31.2,75.5z"></path> <path class="st93" d="M38.6,60.8l18.5,7.1c0.6,0.2,1.3,0,1.6-0.6l21.3-41c0.5-1-0.5-2.2-1.6-1.8l-65.5,24c-1.1,0.4-1.1,2,0,2.4 L38.6,60.8z"></path> <path class="st93" d="M77.1,26.8l-38.5,34l0,0l-7.2,14.7c0,0.1-0.2,0.1-0.2,0l-4.1-19v-0.1L77,26.6 C77.1,26.5,77.2,26.7,77.1,26.8z"></path> </g> <g> <path class="st94" d="M31.1,75.4l7.4-14.7l5.8,2.2l-13,12.6C31.2,75.5,31.2,75.5,31.1,75.4z"></path> <path class="st94" d="M38.5,60.7L57,67.8c0.6,0.2,1.3,0,1.6-0.6l21.3-41c0.5-1-0.5-2.2-1.6-1.8l-65.5,24c-1.1,0.4-1.1,2,0,2.4 L38.5,60.7z"></path> <path class="st94" d="M77,26.7l-38.5,34l0,0l-7.2,14.7c0,0.1-0.2,0.1-0.2,0l-4.1-19v-0.1l49.8-29.8C77,26.5,77.1,26.6,77,26.7z"></path> </g> <g> <path class="st95" d="M31,75.4l7.4-14.7l5.8,2.2l-13,12.6C31.2,75.5,31.1,75.4,31,75.4z"></path> <path class="st95" d="M38.5,60.7L57,67.8c0.6,0.2,1.3,0,1.6-0.6l21.3-41c0.5-1-0.5-2.2-1.6-1.8l-65.5,24c-1.1,0.4-1.1,2,0,2.4 L38.5,60.7z"></path> <path class="st95" d="M76.9,26.6l-38.5,34l0,0l-7.2,14.7c0,0.1-0.2,0.1-0.2,0l-4.1-19v-0.1l49.8-29.8 C76.9,26.4,77,26.5,76.9,26.6z"></path> </g> <g> <path class="st96" d="M31,75.3l7.4-14.7l5.8,2.2l-13,12.6C31.1,75.4,31,75.3,31,75.3z"></path> <path class="st96" d="M38.4,60.6l18.5,7.1c0.6,0.2,1.3,0,1.6-0.6l21.3-41c0.5-1-0.5-2.2-1.6-1.8l-65.5,24c-1.1,0.4-1.1,2,0,2.4 L38.4,60.6z"></path> <path class="st96" d="M76.9,26.6l-38.5,34l0,0l-7.2,14.7c0,0.1-0.2,0.1-0.2,0l-4.1-19v-0.1l49.8-29.8 C76.8,26.3,77,26.5,76.9,26.6z"></path> </g> <g> <path class="st97" d="M30.9,75.2l7.4-14.7l5.8,2.2l-13,12.6C31,75.3,30.9,75.3,30.9,75.2z"></path> <path class="st97" d="M38.3,60.5l18.5,7.1c0.6,0.2,1.3,0,1.6-0.6l21.3-41c0.5-1-0.5-2.2-1.6-1.8l-65.6,24c-1.1,0.4-1.1,2,0,2.4 L38.3,60.5z"></path> <path class="st97" d="M76.8,26.5l-38.5,34l0,0l-7.2,14.7c0,0.1-0.2,0.1-0.2,0l-4.1-19v-0.1l49.8-29.8 C76.8,26.3,76.9,26.4,76.8,26.5z"></path> </g> <g> <path class="st98" d="M30.8,75.2l7.4-14.7l5.8,2.2L31,75.2C30.9,75.3,30.9,75.2,30.8,75.2z"></path> <path class="st98" d="M38.2,60.4l18.5,7.1c0.6,0.2,1.3,0,1.6-0.6l21.3-41c0.5-1-0.5-2.2-1.6-1.8l-65.5,24c-1.1,0.4-1.1,2,0,2.4 L38.2,60.4z"></path> <path class="st98" d="M76.7,26.4l-38.5,34l0,0L31,75.2c0,0.1-0.2,0.1-0.2,0l-4.1-19v-0.1l49.8-29.8 C76.7,26.2,76.8,26.3,76.7,26.4z"></path> </g> <g> <path class="st99" d="M30.8,75.1l7.4-14.7l5.8,2.2L30.9,75.2L30.8,75.1z"></path> <path class="st99" d="M38.2,60.4l18.5,7.1c0.6,0.2,1.3,0,1.6-0.6l21.3-41c0.5-1-0.5-2.2-1.6-1.8l-65.5,24c-1.1,0.4-1.1,2,0,2.4 L38.2,60.4z"></path> <path class="st99" d="M76.6,26.4l-38.5,34l0,0L31,75.1c0,0.1-0.2,0.1-0.2,0l-4.1-19V56l49.8-29.8C76.6,26.1,76.7,26.3,76.6,26.4z "></path> </g> <g> <path class="st100" d="M30.7,75l7.4-14.7l5.8,2.2l-13,12.6C30.8,75.1,30.7,75.1,30.7,75z"></path> <path class="st100" d="M38.1,60.3l18.5,7.1c0.6,0.2,1.3,0,1.6-0.6l21.3-41c0.5-1-0.5-2.2-1.6-1.8L12.4,48c-1.1,0.4-1.1,2,0,2.4 L38.1,60.3z"></path> <path class="st100" d="M76.6,26.3l-38.5,34l0,0L30.9,75c0,0.1-0.2,0.1-0.2,0l-4.1-19v-0.1l49.8-29.8 C76.6,26.1,76.7,26.2,76.6,26.3z"></path> </g> <g> <path class="st101" d="M30.6,75L38,60.2l5.8,2.2L30.8,75C30.7,75.1,30.6,75,30.6,75z"></path> <path class="st101" d="M38,60.2l18.5,7.1c0.6,0.2,1.3,0,1.6-0.6l21.3-41c0.5-1-0.5-2.2-1.6-1.8l-65.5,24c-1.1,0.4-1.1,2,0,2.4 L38,60.2z"></path> <path class="st101" d="M76.5,26.2L38,60.2l0,0l-7.2,14.7c0,0.1-0.2,0.1-0.2,0l-4.1-19v-0.1L76.3,26C76.5,26,76.6,26.1,76.5,26.2z "></path> </g> <g> <path class="st102" d="M30.5,74.9l7.4-14.7l5.8,2.2L30.7,75C30.6,75,30.6,74.9,30.5,74.9z"></path> <path class="st102" d="M37.9,60.2l18.5,7.1c0.6,0.2,1.3,0,1.6-0.6l21.3-41c0.5-1-0.5-2.2-1.6-1.8l-65.5,24c-1.1,0.4-1.1,2,0,2.4 L37.9,60.2z"></path> <path class="st102" d="M76.4,26.2l-38.5,34l0,0l-7.2,14.7c0,0.1-0.2,0.1-0.2,0l-4.1-19v-0.1L76.2,26 C76.4,25.9,76.5,26.1,76.4,26.2z"></path> </g> <g> <path class="st103" d="M30.5,74.8l7.4-14.7l5.8,2.2l-13,12.6C30.6,74.9,30.5,74.9,30.5,74.8z"></path> <path class="st103" d="M37.9,60.1l18.4,7.1c0.6,0.2,1.3,0,1.6-0.6l21.3-41c0.5-1-0.5-2.2-1.6-1.8l-65.5,24c-1.1,0.4-1.1,2,0,2.4 L37.9,60.1z"></path> <path class="st103" d="M76.3,26.1l-38.5,34l0,0l-7.2,14.7c0,0.1-0.2,0.1-0.2,0l-4.1-19v-0.1l49.8-29.8 C76.3,25.9,76.4,26,76.3,26.1z"></path> </g> <g> <path class="st104" d="M30.4,74.7L37.8,60l5.8,2.2l-13,12.6C30.5,74.9,30.4,74.8,30.4,74.7z"></path> <path class="st104" d="M37.8,60l18.4,7.2c0.6,0.2,1.3,0,1.6-0.6l21.3-41c0.5-1-0.5-2.2-1.6-1.8L12,47.7c-1.1,0.4-1.1,2,0,2.4 L37.8,60z"></path> <path class="st104" d="M76.3,26L37.8,60l0,0l-7.2,14.7c0,0.1-0.2,0.1-0.2,0l-4.1-19v-0.1l49.8-29.8C76.3,25.8,76.4,25.9,76.3,26z "></path> </g> <g> <path class="st105" d="M30.3,74.7L37.7,60l5.8,2.2l-13,12.6C30.4,74.8,30.3,74.7,30.3,74.7z"></path> <path class="st105" d="M37.7,60l18.5,7.1c0.6,0.2,1.3,0,1.6-0.6l21.3-41c0.5-1-0.5-2.2-1.6-1.8L12,47.7c-1.1,0.4-1.1,2,0,2.4 L37.7,60z"></path> <path class="st105" d="M76.2,26L37.7,60l0,0l-7.2,14.7c0,0.1-0.2,0.1-0.2,0l-4.1-19v-0.1L76,25.8C76.2,25.7,76.3,25.9,76.2,26z"></path> </g> <g> <path class="st106" d="M30.2,74.6l7.4-14.7l5.8,2.2l-13,12.6C30.3,74.7,30.3,74.7,30.2,74.6z"></path> <path class="st106" d="M37.6,59.9L56.1,67c0.6,0.2,1.3,0,1.6-0.6l21.3-41c0.5-1-0.5-2.2-1.6-1.8l-65.5,24c-1.1,0.4-1.1,2,0,2.4 L37.6,59.9z"></path> <path class="st106" d="M76.1,25.9l-38.5,34l0,0l-7.2,14.7c0,0.1-0.2,0.1-0.2,0l-4.1-19v-0.1L76,25.7 C76.1,25.7,76.2,25.8,76.1,25.9z"></path> </g> <g> <path class="st107" d="M30.2,74.5l7.4-14.7l5.8,2.2l-13,12.6C30.3,74.7,30.2,74.6,30.2,74.5z"></path> <path class="st107" d="M37.6,59.8L56,67c0.6,0.2,1.3,0,1.6-0.6l21.3-41c0.5-1-0.5-2.2-1.6-1.8l-65.5,24c-1.1,0.4-1.1,2,0,2.4 L37.6,59.8z"></path> <path class="st107" d="M76.1,25.8l-38.5,34l0,0l-7.2,14.7c0,0.1-0.2,0.1-0.2,0l-4.1-19v-0.1l49.8-29.8 C76,25.6,76.1,25.7,76.1,25.8z"></path> </g> <g> <path class="st108" d="M30.1,74.5l7.4-14.7l5.8,2.2l-13,12.6C30.2,74.6,30.1,74.5,30.1,74.5z"></path> <path class="st108" d="M37.5,59.8L56,66.9c0.6,0.2,1.3,0,1.6-0.6l21.3-41c0.5-1-0.5-2.2-1.6-1.8l-65.5,24c-1.1,0.4-1.1,2,0,2.4 L37.5,59.8z"></path> <path class="st108" d="M76,25.7l-38.5,34l0,0l-7.2,14.7c0,0.1-0.2,0.1-0.2,0l-4.1-19v-0.1l49.8-29.8C76,25.5,76.1,25.7,76,25.7z"></path> </g> <g> <path class="st109" d="M30,74.4l7.4-14.7l5.8,2.2l-13,12.6C30.1,74.5,30,74.5,30,74.4z"></path> <path class="st109" d="M37.4,59.7l18.5,7.1c0.6,0.2,1.3,0,1.6-0.6l21.3-41c0.5-1-0.5-2.2-1.6-1.8l-65.5,24c-1.1,0.4-1.1,2,0,2.4 L37.4,59.7z"></path> <path class="st109" d="M75.9,25.7l-38.5,34l0,0l-7.2,14.7c0,0.1-0.2,0.1-0.2,0l-4.1-19v-0.1l49.8-29.8 C75.9,25.4,76,25.6,75.9,25.7z"></path> </g> <g> <path class="st110" d="M29.9,74.3l7.4-14.7l5.8,2.2l-13,12.6C30.1,74.5,30,74.4,29.9,74.3z"></path> <path class="st110" d="M37.3,59.6l18.5,7.1c0.6,0.2,1.3,0,1.6-0.6l21.3-41c0.5-1-0.5-2.2-1.6-1.8l-65.5,24c-1.1,0.4-1.1,2,0,2.4 L37.3,59.6z"></path> <path class="st110" d="M75.8,25.6l-38.5,34l0,0l-7.2,14.7c0,0.1-0.2,0.1-0.2,0l-4.1-19v-0.1l49.8-29.8 C75.8,25.4,75.9,25.5,75.8,25.6z"></path> </g> <g> <path class="st111" d="M29.9,74.3l7.4-14.7l5.8,2.2L30,74.3C30,74.4,29.9,74.3,29.9,74.3z"></path> <path class="st111" d="M37.3,59.6l18.5,7.1c0.6,0.2,1.3,0,1.6-0.6l21.3-41c0.5-1-0.5-2.2-1.6-1.8l-65.5,24c-1.1,0.4-1.1,2,0,2.4 L37.3,59.6z"></path> <path class="st111" d="M75.8,25.5l-38.5,34l0,0l-7.2,14.7c0,0.1-0.2,0.1-0.2,0l-4.1-19v-0.1l49.8-29.8 C75.7,25.3,75.9,25.5,75.8,25.5z"></path> </g> <g> <path class="st112" d="M29.8,74.2l7.4-14.7l5.8,2.2L30,74.3C29.9,74.3,29.8,74.3,29.8,74.2z"></path> <path class="st112" d="M37.2,59.5l18.5,7.1c0.6,0.2,1.3,0,1.6-0.6l21.3-41c0.5-1-0.5-2.2-1.6-1.8l-65.6,24c-1.1,0.4-1.1,2,0,2.4 L37.2,59.5z"></path> <path class="st112" d="M75.7,25.5l-38.5,34l0,0L30,74.2c0,0.1-0.2,0.1-0.2,0l-4.1-19v-0.1l49.8-29.8 C75.7,25.2,75.8,25.4,75.7,25.5z"></path> </g> <g> <path class="st113" d="M29.7,74.1l7.4-14.7l5.8,2.2l-13,12.6C29.8,74.2,29.7,74.2,29.7,74.1z"></path> <path class="st113" d="M37.1,59.4l18.5,7.1c0.6,0.2,1.3,0,1.6-0.6l21.3-41c0.5-1-0.5-2.2-1.6-1.8l-65.5,24c-1.1,0.4-1.1,2,0,2.4 L37.1,59.4z"></path> <path class="st113" d="M75.6,25.4l-38.5,34l0,0l-7.2,14.8c0,0.1-0.2,0.1-0.2,0l-4.1-19v-0.1l49.9-29.9 C75.6,25.2,75.7,25.3,75.6,25.4z"></path> </g> <g> <path class="st114" d="M29.6,74.1L37,59.4l5.8,2.2l-13,12.6C29.8,74.2,29.7,74.1,29.6,74.1z"></path> <path class="st114" d="M37,59.4l18.5,7.1c0.6,0.2,1.3,0,1.6-0.6l21.3-41c0.5-1-0.5-2.2-1.6-1.8l-65.5,24c-1.1,0.4-1.1,2,0,2.4 L37,59.4z"></path> <path class="st114" d="M75.5,25.3L37,59.3l0,0L29.8,74c0,0.1-0.2,0.1-0.2,0l-4.1-19v-0.1l49.9-29.7 C75.5,25.1,75.6,25.3,75.5,25.3z"></path> </g> <g> <path class="st115" d="M29.6,74L37,59.3l5.8,2.2l-13,12.6C29.7,74.1,29.6,74.1,29.6,74z"></path> <path class="st115" d="M37,59.3l18.5,7.1c0.6,0.2,1.3,0,1.6-0.6l21.3-41c0.5-1-0.5-2.2-1.6-1.8L11.3,47c-1.1,0.4-1.1,2,0,2.4 L37,59.3z"></path> <path class="st115" d="M75.5,25.3L37,59.3l0,0L29.8,74c0,0.1-0.2,0.1-0.2,0l-4.1-19v-0.1l49.8-29.8C75.4,25,75.6,25.2,75.5,25.3z "></path> </g> <g> <path class="st116" d="M29.5,73.9l7.4-14.7l5.8,2.2L29.7,74C29.6,74,29.5,74,29.5,73.9z"></path> <path class="st116" d="M36.9,59.2l18.5,7.1c0.6,0.2,1.3,0,1.6-0.6l21.3-41c0.5-1-0.5-2.2-1.6-1.8l-65.5,24c-1.1,0.4-1.1,2,0,2.4 L36.9,59.2z"></path> <path class="st116" d="M75.4,25.2l-38.5,34l0,0l-7.2,14.7c0,0.1-0.2,0.1-0.2,0l-4.1-19v-0.1L75.2,25C75.4,25,75.5,25.1,75.4,25.2 z"></path> </g> <g> <path class="st117" d="M29.4,73.9l7.4-14.7l5.8,2.2L29.6,74C29.5,74,29.5,73.9,29.4,73.9z"></path> <path class="st117" d="M36.8,59.2l18.5,7.1c0.6,0.2,1.3,0,1.6-0.6l21.3-41c0.5-1-0.5-2.2-1.6-1.8l-65.5,24c-1.1,0.4-1.1,2,0,2.4 L36.8,59.2z"></path> <path class="st117" d="M75.3,25.1l-38.5,34l0,0l-7.2,14.7c0,0.1-0.2,0.1-0.2,0l-4.1-19v-0.1l49.8-29.8 C75.3,24.9,75.4,25.1,75.3,25.1z"></path> </g> <g> <path class="st118" d="M29.4,73.8l7.4-14.7l5.8,2.2l-13,12.6C29.5,73.9,29.4,73.9,29.4,73.8z"></path> <path class="st118" d="M36.8,59.1l18.4,7.1c0.6,0.2,1.3,0,1.6-0.6l21.3-41c0.5-1-0.5-2.2-1.6-1.8L11,46.8c-1.1,0.4-1.1,2,0,2.4 L36.8,59.1z"></path> <path class="st118" d="M75.2,25.1l-38.5,34l0,0l-7.2,14.7c0,0.1-0.2,0.1-0.2,0l-4.1-19v-0.1L75,24.9C75.2,24.8,75.3,25,75.2,25.1 z"></path> </g> <g> <path class="st119" d="M29.3,73.7L36.7,59l5.8,2.2l-13,12.6C29.4,73.8,29.3,73.8,29.3,73.7z"></path> <path class="st119" d="M36.7,59l18.5,7.1c0.6,0.2,1.3,0,1.6-0.6l21.3-41c0.5-1-0.5-2.2-1.6-1.8L11,46.7c-1.1,0.4-1.1,2,0,2.4 L36.7,59z"></path> <path class="st119" d="M75.2,25L36.7,59l0,0l-7.2,14.7c0,0.1-0.2,0.1-0.2,0l-4.1-19v-0.1L75,24.8C75.2,24.8,75.3,24.9,75.2,25z"></path> </g> <g> <path class="st120" d="M29.2,73.7L36.6,59l5.8,2.2l-13,12.6C29.3,73.8,29.2,73.7,29.2,73.7z"></path> <path class="st120" d="M36.6,59l18.5,7.1c0.6,0.2,1.3,0,1.6-0.6l21.3-41c0.5-1-0.5-2.2-1.6-1.8l-65.5,24c-1.1,0.4-1.1,2,0,2.4 L36.6,59z"></path> <path class="st120" d="M75.1,24.9l-38.5,34l0,0l-7.2,14.7c0,0.1-0.2,0.1-0.2,0l-4.1-19v-0.1L75,24.8 C75.1,24.7,75.2,24.8,75.1,24.9z"></path> </g> <g> <path class="st121" d="M29.1,73.6l7.4-14.7l5.8,2.2l-13,12.6C29.2,73.7,29.2,73.6,29.1,73.6z"></path> <path class="st121" d="M36.5,58.9L55,66c0.6,0.2,1.3,0,1.6-0.6l21.3-41c0.5-1-0.5-2.2-1.6-1.8l-65.5,24c-1.1,0.4-1.1,2,0,2.4 L36.5,58.9z"></path> <path class="st121" d="M75,24.9l-38.5,34l0,0l-7.2,14.7c0,0.1-0.2,0.1-0.2,0l-4.1-19v-0.1l49.8-29.8C75,24.6,75.1,24.8,75,24.9z"></path> </g> <g> <path class="st122" d="M29.1,73.5l7.4-14.7l5.8,2.2l-13,12.6C29.2,73.6,29.1,73.6,29.1,73.5z"></path> <path class="st122" d="M36.5,58.8L55,65.9c0.6,0.2,1.3,0,1.6-0.6l21.3-41c0.5-1-0.5-2.2-1.6-1.8l-65.5,24c-1.1,0.4-1.1,2,0,2.4 L36.5,58.8z"></path> <path class="st122" d="M74.9,24.8l-38.5,34l0,0l-7.2,14.7c0,0.1-0.2,0.1-0.2,0l-4.1-19v-0.1l49.8-29.8 C74.9,24.6,75,24.7,74.9,24.8z"></path> </g> <g> <path class="st123" d="M29,73.5l7.4-14.7l5.8,2.2l-13,12.6C29.1,73.6,29,73.5,29,73.5z"></path> <path class="st123" d="M36.4,58.7l18.5,7.1c0.6,0.2,1.3,0,1.6-0.6l21.3-41c0.5-1-0.5-2.2-1.6-1.8l-65.5,24c-1.1,0.4-1.1,2,0,2.4 L36.4,58.7z"></path> <path class="st123" d="M74.9,24.7l-38.5,34l0,0l-7.2,14.7c0,0.1-0.2,0.1-0.2,0l-4.1-19v-0.1l49.8-29.8 C74.9,24.5,75,24.6,74.9,24.7z"></path> </g> <g> <path class="st124" d="M28.9,73.4l7.4-14.7l5.8,2.2l-13,12.6C29,73.5,28.9,73.4,28.9,73.4z"></path> <path class="st124" d="M36.3,58.7l18.5,7.1c0.6,0.2,1.3,0,1.6-0.6l21.3-41c0.5-1-0.5-2.2-1.6-1.8l-65.5,24c-1.1,0.4-1.1,2,0,2.4 L36.3,58.7z"></path> <path class="st124" d="M74.8,24.7l-38.5,34l0,0l-7.2,14.7c0,0.1-0.2,0.1-0.2,0l-4.1-19v-0.1l49.8-29.8 C74.8,24.4,74.9,24.6,74.8,24.7z"></path> </g> <g> <path class="st125" d="M28.8,73.3l7.4-14.7l5.8,2.2L29,73.4C28.9,73.4,28.9,73.4,28.8,73.3z"></path> <path class="st125" d="M36.2,58.6l18.5,7.1c0.6,0.2,1.3,0,1.6-0.6l21.3-41c0.5-1-0.5-2.2-1.6-1.8l-65.5,24c-1.1,0.4-1.1,2,0,2.4 L36.2,58.6z"></path> <path class="st125" d="M74.7,24.6l-38.5,34l0,0L29,73.3c0,0.1-0.2,0.1-0.2,0l-4.1-19v-0.1l49.8-29.8 C74.7,24.4,74.8,24.5,74.7,24.6z"></path> </g> <g> <path class="st126" d="M28.8,73.3l7.4-14.7l5.8,2.2L29,73.4C28.9,73.4,28.8,73.3,28.8,73.3z"></path> <path class="st126" d="M36.2,58.5l18.5,7.1c0.6,0.2,1.3,0,1.6-0.6l21.3-41c0.5-1-0.5-2.2-1.6-1.8l-65.6,24c-1.1,0.4-1.1,2,0,2.4 L36.2,58.5z"></path> <path class="st126" d="M74.6,24.5l-38.5,34l0,0L29,73.3c0,0.1-0.2,0.1-0.2,0l-4.1-19v-0.1l49.8-29.8 C74.6,24.3,74.7,24.4,74.6,24.5z"></path> </g> <g> <path class="st127" d="M28.7,73.2l7.4-14.7l5.8,2.2l-13,12.6C28.8,73.3,28.7,73.2,28.7,73.2z"></path> <path class="st127" d="M36.1,58.5l18.5,7.1c0.6,0.2,1.3,0,1.6-0.6l21.3-41c0.5-1-0.5-2.2-1.6-1.8l-65.6,24c-1.1,0.4-1.1,2,0,2.4 L36.1,58.5z"></path> <path class="st127" d="M74.6,24.5l-38.5,34l0,0l-7.2,14.7c0,0.1-0.2,0.1-0.2,0l-4.1-19v-0.1l49.8-29.8 C74.6,24.2,74.7,24.4,74.6,24.5z"></path> </g> <g> <path class="st128" d="M28.6,73.1L36,58.4l5.8,2.2l-13,12.6C28.7,73.2,28.6,73.2,28.6,73.1z"></path> <path class="st128" d="M36,58.4l18.5,7.1c0.6,0.2,1.3,0,1.6-0.6l21.3-41c0.5-1-0.5-2.2-1.6-1.8l-65.5,24c-1.1,0.4-1.1,2,0,2.4 L36,58.4z"></path> <path class="st128" d="M74.5,24.4L36,58.4l0,0l-7.2,14.7c0,0.1-0.2,0.1-0.2,0l-4.1-19V54l49.9-29.8 C74.5,24.2,74.6,24.3,74.5,24.4z"></path> </g> <g> <path class="st129" d="M28.5,73l7.4-14.7l5.8,2.2l-13,12.6C28.7,73.2,28.6,73.1,28.5,73z"></path> <path class="st129" d="M35.9,58.3l18.5,7.1c0.6,0.2,1.3,0,1.6-0.6l21.3-41c0.5-1-0.5-2.2-1.6-1.8L10.2,46c-1.1,0.4-1.1,2,0,2.4 L35.9,58.3z"></path> <path class="st129" d="M74.4,24.3L36,58.3l0,0L28.8,73c0,0.1-0.2,0.1-0.2,0l-4.1-19v-0.1l49.8-29.7 C74.4,24.1,74.5,24.2,74.4,24.3z"></path> </g> <g> <path class="st130" d="M28.5,73l7.4-14.7l5.8,2.2l-13,12.6C28.6,73.1,28.5,73,28.5,73z"></path> <path class="st130" d="M35.9,58.3l18.5,7.1c0.6,0.2,1.3,0,1.6-0.6l21.3-41c0.5-1-0.5-2.2-1.6-1.8L10.2,46c-1.1,0.4-1.1,2,0,2.4 L35.9,58.3z"></path> <path class="st130" d="M74.4,24.3l-38.5,34l0,0L28.7,73c0,0.1-0.2,0.1-0.2,0l-4.1-19v-0.1l49.8-29.8C74.3,24,74.4,24.2,74.4,24.3 z"></path> </g> <g> <path class="st131" d="M28.4,72.9l7.4-14.7l5.8,2.2L28.6,73C28.5,73,28.4,73,28.4,72.9z"></path> <path class="st131" d="M35.8,58.2l18.5,7.1c0.6,0.2,1.3,0,1.6-0.6l21.3-41c0.5-1-0.5-2.2-1.6-1.8L10,45.9c-1.1,0.4-1.1,2,0,2.4 L35.8,58.2z"></path> <path class="st131" d="M74.3,24.2l-38.5,34l0,0l-7.2,14.7c0,0.1-0.2,0.1-0.2,0l-4.1-19v-0.1L74.1,24C74.3,24,74.4,24.1,74.3,24.2 z"></path> </g> <g> <path class="st132" d="M28.3,72.8l7.4-14.7l5.8,2.2l-13,12.6C28.4,73,28.3,72.9,28.3,72.8z"></path> <path class="st132" d="M35.7,58.1l18.5,7.1c0.6,0.2,1.3,0,1.6-0.6l21.3-41c0.5-1-0.5-2.2-1.6-1.8L10,45.8c-1.1,0.4-1.1,2,0,2.4 L35.7,58.1z"></path> <path class="st132" d="M74.2,24.1l-38.5,34l0,0l-7.2,14.7c0,0.1-0.2,0.1-0.2,0l-4.1-19v-0.1L74,23.9C74.2,23.9,74.3,24,74.2,24.1 z"></path> </g> <g> <path class="st133" d="M28.2,72.8l7.4-14.7l5.8,2.2l-13,12.6C28.4,72.9,28.3,72.8,28.2,72.8z"></path> <path class="st133" d="M35.6,58.1l18.5,7.1c0.6,0.2,1.3,0,1.6-0.6l21.3-41c0.5-1-0.5-2.2-1.6-1.8l-65.5,24c-1.1,0.4-1.1,2,0,2.4 L35.6,58.1z"></path> <path class="st133" d="M74.1,24L35.6,58l0,0l-7.2,14.7c0,0.1-0.2,0.1-0.2,0l-4.1-19v-0.1L74,23.9C74.1,23.8,74.2,24,74.1,24z"></path> </g> <g> <path class="st134" d="M28.2,72.7L35.6,58l5.8,2.2l-13,12.6C28.3,72.8,28.2,72.8,28.2,72.7z"></path> <path class="st134" d="M35.6,58L54,65.1c0.6,0.2,1.3,0,1.6-0.6l21.3-41c0.5-1-0.5-2.2-1.6-1.8l-65.5,24c-1.1,0.4-1.1,2,0,2.4 L35.6,58z"></path> <path class="st134" d="M74.1,24L35.6,58l0,0l-7.2,14.7c0,0.1-0.2,0.1-0.2,0l-4.1-19v-0.1l49.8-29.8C74,23.7,74.2,23.9,74.1,24z"></path> </g> <g> <path class="st135" d="M28.1,72.6l7.4-14.7l5.8,2.2l-13,12.6C28.2,72.7,28.1,72.7,28.1,72.6z"></path> <path class="st135" d="M35.5,57.9L54,65.1c0.6,0.2,1.3,0,1.6-0.6l21.3-41c0.5-1-0.5-2.2-1.6-1.8l-65.5,24c-1.1,0.4-1.1,2,0,2.4 L35.5,57.9z"></path> <path class="st135" d="M74,23.9l-38.5,34l0,0l-7.2,14.7c0,0.1-0.2,0.1-0.2,0l-4.1-19v-0.1l49.8-29.8C74,23.7,74.1,23.8,74,23.9z"></path> </g> <g> <path class="st136" d="M28,72.6l7.4-14.7l5.8,2.2l-13,12.6C28.1,72.7,28.1,72.6,28,72.6z"></path> <path class="st136" d="M35.4,57.9L53.9,65c0.6,0.2,1.3,0,1.6-0.6l21.3-41c0.5-1-0.5-2.2-1.6-1.8l-65.5,24c-1.1,0.4-1.1,2,0,2.4 L35.4,57.9z"></path> <path class="st136" d="M73.9,23.8l-38.5,34l0,0l-7.2,14.7c0,0.1-0.2,0.1-0.2,0l-4.1-19v-0.1l49.8-29.8 C73.9,23.6,74,23.8,73.9,23.8z"></path> </g> <g> <path class="st137" d="M27.9,72.5l7.4-14.7l5.8,2.2l-13,12.6C28.1,72.6,28,72.6,27.9,72.5z"></path> <path class="st137" d="M35.4,57.8l18.5,7.1c0.6,0.2,1.3,0,1.6-0.6l21.3-41c0.5-1-0.5-2.2-1.6-1.8l-65.5,24c-1.1,0.4-1.1,2,0,2.4 L35.4,57.8z"></path> <path class="st137" d="M73.8,23.8l-38.5,34l0,0l-7.2,14.7c0,0.1-0.2,0.1-0.2,0l-4.1-19v-0.1l49.8-29.8 C73.8,23.5,73.9,23.7,73.8,23.8z"></path> </g> <g> <path class="st138" d="M27.9,72.4l7.4-14.7l5.8,2.2L28,72.5C28,72.5,27.9,72.5,27.9,72.4z"></path> <path class="st138" d="M35.3,57.7l18.5,7.1c0.6,0.2,1.3,0,1.6-0.6l21.3-41c0.5-1-0.5-2.2-1.6-1.8l-65.5,24c-1.1,0.4-1.1,2,0,2.4 L35.3,57.7z"></path> <path class="st138" d="M73.8,23.7l-38.5,34l0,0l-7.2,14.7c0,0.1-0.2,0.1-0.2,0l-4.1-19v-0.1l49.8-29.8 C73.7,23.5,73.9,23.6,73.8,23.7z"></path> </g> <g> <path class="st139" d="M27.8,72.4l7.4-14.7l5.8,2.2L28,72.4C27.9,72.5,27.8,72.4,27.8,72.4z"></path> <path class="st139" d="M35.2,57.7l18.5,7.1c0.6,0.2,1.3,0,1.6-0.6l21.3-41c0.5-1-0.5-2.2-1.6-1.8l-65.5,24c-1.1,0.4-1.1,2,0,2.4 L35.2,57.7z"></path> <path class="st139" d="M73.7,23.6l-38.5,34l0,0L28,72.4c0,0.1-0.2,0.1-0.2,0l-4.1-19v-0.1l49.8-29.8 C73.7,23.4,73.8,23.6,73.7,23.6z"></path> </g> <g> <path d="M27.7,72.3l7.4-14.7l5.8,2.2l-13,12.6C27.8,72.4,27.8,72.4,27.7,72.3z"></path> <path d="M35.1,57.6l18.5,7.1c0.6,0.2,1.3,0,1.6-0.6l21.3-41c0.5-1-0.5-2.2-1.6-1.8l-65.5,24c-1.1,0.4-1.1,2,0,2.4L35.1,57.6z"></path> <path d="M73.6,23.6l-38.5,34l0,0l-7.2,14.7c0,0.1-0.2,0.1-0.2,0l-4.1-19v-0.1l49.8-29.8C73.6,23.3,73.7,23.5,73.6,23.6z"></path> </g> </g> <g> <path class="st140" d="M27.7,72.3l7.4-14.7l5.8,2.2l-13,12.6C27.8,72.4,27.8,72.4,27.7,72.3z"></path> <path class="st141" d="M35.1,57.6l18.5,7.1c0.6,0.2,1.3,0,1.6-0.6l21.3-41c0.5-1-0.5-2.2-1.6-1.8l-65.5,24c-1.1,0.4-1.1,2,0,2.4 L35.1,57.6z"></path> <path class="st142" d="M73.6,23.6l-38.5,34l0,0l-7.2,14.7c0,0.1-0.2,0.1-0.2,0l-4.1-19v-0.1l49.8-29.8 C73.6,23.3,73.7,23.5,73.6,23.6z"></path> </g> </g> </svg> 